%FSLAX25Y25*%
%MOIN*%
G70*
G01*
G75*
G04 Layer_Color=16711935*
%ADD10C,0.03937*%
G04:AMPARAMS|DCode=11|XSize=19.69mil|YSize=31.5mil|CornerRadius=0.98mil|HoleSize=0mil|Usage=FLASHONLY|Rotation=180.000|XOffset=0mil|YOffset=0mil|HoleType=Round|Shape=RoundedRectangle|*
%AMROUNDEDRECTD11*
21,1,0.01969,0.02953,0,0,180.0*
21,1,0.01772,0.03150,0,0,180.0*
1,1,0.00197,-0.00886,0.01476*
1,1,0.00197,0.00886,0.01476*
1,1,0.00197,0.00886,-0.01476*
1,1,0.00197,-0.00886,-0.01476*
%
%ADD11ROUNDEDRECTD11*%
G04:AMPARAMS|DCode=12|XSize=35.43mil|YSize=39.37mil|CornerRadius=1.77mil|HoleSize=0mil|Usage=FLASHONLY|Rotation=270.000|XOffset=0mil|YOffset=0mil|HoleType=Round|Shape=RoundedRectangle|*
%AMROUNDEDRECTD12*
21,1,0.03543,0.03583,0,0,270.0*
21,1,0.03189,0.03937,0,0,270.0*
1,1,0.00354,-0.01791,-0.01595*
1,1,0.00354,-0.01791,0.01595*
1,1,0.00354,0.01791,0.01595*
1,1,0.00354,0.01791,-0.01595*
%
%ADD12ROUNDEDRECTD12*%
G04:AMPARAMS|DCode=13|XSize=19.69mil|YSize=23.62mil|CornerRadius=0.98mil|HoleSize=0mil|Usage=FLASHONLY|Rotation=0.000|XOffset=0mil|YOffset=0mil|HoleType=Round|Shape=RoundedRectangle|*
%AMROUNDEDRECTD13*
21,1,0.01969,0.02165,0,0,0.0*
21,1,0.01772,0.02362,0,0,0.0*
1,1,0.00197,0.00886,-0.01083*
1,1,0.00197,-0.00886,-0.01083*
1,1,0.00197,-0.00886,0.01083*
1,1,0.00197,0.00886,0.01083*
%
%ADD13ROUNDEDRECTD13*%
G04:AMPARAMS|DCode=14|XSize=47.24mil|YSize=70.87mil|CornerRadius=4.72mil|HoleSize=0mil|Usage=FLASHONLY|Rotation=270.000|XOffset=0mil|YOffset=0mil|HoleType=Round|Shape=RoundedRectangle|*
%AMROUNDEDRECTD14*
21,1,0.04724,0.06142,0,0,270.0*
21,1,0.03780,0.07087,0,0,270.0*
1,1,0.00945,-0.03071,-0.01890*
1,1,0.00945,-0.03071,0.01890*
1,1,0.00945,0.03071,0.01890*
1,1,0.00945,0.03071,-0.01890*
%
%ADD14ROUNDEDRECTD14*%
G04:AMPARAMS|DCode=15|XSize=196.85mil|YSize=78.74mil|CornerRadius=3.94mil|HoleSize=0mil|Usage=FLASHONLY|Rotation=270.000|XOffset=0mil|YOffset=0mil|HoleType=Round|Shape=RoundedRectangle|*
%AMROUNDEDRECTD15*
21,1,0.19685,0.07087,0,0,270.0*
21,1,0.18898,0.07874,0,0,270.0*
1,1,0.00787,-0.03543,-0.09449*
1,1,0.00787,-0.03543,0.09449*
1,1,0.00787,0.03543,0.09449*
1,1,0.00787,0.03543,-0.09449*
%
%ADD15ROUNDEDRECTD15*%
%ADD16C,0.01969*%
%ADD17R,0.05906X0.05906*%
%ADD18C,0.05906*%
%ADD19R,0.05906X0.05906*%
%ADD20C,0.17500*%
%ADD21C,0.05000*%
G04:AMPARAMS|DCode=22|XSize=196.85mil|YSize=39.37mil|CornerRadius=1.97mil|HoleSize=0mil|Usage=FLASHONLY|Rotation=270.000|XOffset=0mil|YOffset=0mil|HoleType=Round|Shape=RoundedRectangle|*
%AMROUNDEDRECTD22*
21,1,0.19685,0.03543,0,0,270.0*
21,1,0.19291,0.03937,0,0,270.0*
1,1,0.00394,-0.01772,-0.09646*
1,1,0.00394,-0.01772,0.09646*
1,1,0.00394,0.01772,0.09646*
1,1,0.00394,0.01772,-0.09646*
%
%ADD22ROUNDEDRECTD22*%
G04:AMPARAMS|DCode=23|XSize=118.11mil|YSize=59.06mil|CornerRadius=2.95mil|HoleSize=0mil|Usage=FLASHONLY|Rotation=270.000|XOffset=0mil|YOffset=0mil|HoleType=Round|Shape=RoundedRectangle|*
%AMROUNDEDRECTD23*
21,1,0.11811,0.05315,0,0,270.0*
21,1,0.11221,0.05906,0,0,270.0*
1,1,0.00591,-0.02658,-0.05610*
1,1,0.00591,-0.02658,0.05610*
1,1,0.00591,0.02658,0.05610*
1,1,0.00591,0.02658,-0.05610*
%
%ADD23ROUNDEDRECTD23*%
%ADD24C,0.01575*%
%ADD25C,0.00787*%
%ADD26C,0.00394*%
%ADD27C,0.00492*%
%ADD28C,0.00100*%
%ADD29C,0.01000*%
G04:AMPARAMS|DCode=30|XSize=27.56mil|YSize=39.37mil|CornerRadius=4.92mil|HoleSize=0mil|Usage=FLASHONLY|Rotation=180.000|XOffset=0mil|YOffset=0mil|HoleType=Round|Shape=RoundedRectangle|*
%AMROUNDEDRECTD30*
21,1,0.02756,0.02953,0,0,180.0*
21,1,0.01772,0.03937,0,0,180.0*
1,1,0.00984,-0.00886,0.01476*
1,1,0.00984,0.00886,0.01476*
1,1,0.00984,0.00886,-0.01476*
1,1,0.00984,-0.00886,-0.01476*
%
%ADD30ROUNDEDRECTD30*%
G04:AMPARAMS|DCode=31|XSize=41.34mil|YSize=45.28mil|CornerRadius=4.72mil|HoleSize=0mil|Usage=FLASHONLY|Rotation=270.000|XOffset=0mil|YOffset=0mil|HoleType=Round|Shape=RoundedRectangle|*
%AMROUNDEDRECTD31*
21,1,0.04134,0.03583,0,0,270.0*
21,1,0.03189,0.04528,0,0,270.0*
1,1,0.00945,-0.01791,-0.01595*
1,1,0.00945,-0.01791,0.01595*
1,1,0.00945,0.01791,0.01595*
1,1,0.00945,0.01791,-0.01595*
%
%ADD31ROUNDEDRECTD31*%
G04:AMPARAMS|DCode=32|XSize=25.59mil|YSize=29.53mil|CornerRadius=3.94mil|HoleSize=0mil|Usage=FLASHONLY|Rotation=0.000|XOffset=0mil|YOffset=0mil|HoleType=Round|Shape=RoundedRectangle|*
%AMROUNDEDRECTD32*
21,1,0.02559,0.02165,0,0,0.0*
21,1,0.01772,0.02953,0,0,0.0*
1,1,0.00787,0.00886,-0.01083*
1,1,0.00787,-0.00886,-0.01083*
1,1,0.00787,-0.00886,0.01083*
1,1,0.00787,0.00886,0.01083*
%
%ADD32ROUNDEDRECTD32*%
G04:AMPARAMS|DCode=33|XSize=53.15mil|YSize=76.77mil|CornerRadius=7.68mil|HoleSize=0mil|Usage=FLASHONLY|Rotation=270.000|XOffset=0mil|YOffset=0mil|HoleType=Round|Shape=RoundedRectangle|*
%AMROUNDEDRECTD33*
21,1,0.05315,0.06142,0,0,270.0*
21,1,0.03780,0.07677,0,0,270.0*
1,1,0.01535,-0.03071,-0.01890*
1,1,0.01535,-0.03071,0.01890*
1,1,0.01535,0.03071,0.01890*
1,1,0.01535,0.03071,-0.01890*
%
%ADD33ROUNDEDRECTD33*%
G04:AMPARAMS|DCode=34|XSize=202.76mil|YSize=84.65mil|CornerRadius=6.89mil|HoleSize=0mil|Usage=FLASHONLY|Rotation=270.000|XOffset=0mil|YOffset=0mil|HoleType=Round|Shape=RoundedRectangle|*
%AMROUNDEDRECTD34*
21,1,0.20276,0.07087,0,0,270.0*
21,1,0.18898,0.08465,0,0,270.0*
1,1,0.01378,-0.03543,-0.09449*
1,1,0.01378,-0.03543,0.09449*
1,1,0.01378,0.03543,0.09449*
1,1,0.01378,0.03543,-0.09449*
%
%ADD34ROUNDEDRECTD34*%
%ADD35R,0.06706X0.06706*%
%ADD36C,0.06706*%
%ADD37R,0.06706X0.06706*%
%ADD38C,0.18300*%
%ADD39C,0.05800*%
G04:AMPARAMS|DCode=40|XSize=202.76mil|YSize=45.28mil|CornerRadius=4.92mil|HoleSize=0mil|Usage=FLASHONLY|Rotation=270.000|XOffset=0mil|YOffset=0mil|HoleType=Round|Shape=RoundedRectangle|*
%AMROUNDEDRECTD40*
21,1,0.20276,0.03543,0,0,270.0*
21,1,0.19291,0.04528,0,0,270.0*
1,1,0.00984,-0.01772,-0.09646*
1,1,0.00984,-0.01772,0.09646*
1,1,0.00984,0.01772,0.09646*
1,1,0.00984,0.01772,-0.09646*
%
%ADD40ROUNDEDRECTD40*%
G04:AMPARAMS|DCode=41|XSize=124.02mil|YSize=64.96mil|CornerRadius=5.91mil|HoleSize=0mil|Usage=FLASHONLY|Rotation=270.000|XOffset=0mil|YOffset=0mil|HoleType=Round|Shape=RoundedRectangle|*
%AMROUNDEDRECTD41*
21,1,0.12402,0.05315,0,0,270.0*
21,1,0.11221,0.06496,0,0,270.0*
1,1,0.01181,-0.02658,-0.05610*
1,1,0.01181,-0.02658,0.05610*
1,1,0.01181,0.02658,0.05610*
1,1,0.01181,0.02658,-0.05610*
%
%ADD41ROUNDEDRECTD41*%
%ADD42C,0.00098*%
%ADD43C,0.00197*%
D26*
X79409Y168882D02*
Y170653D01*
X80590Y168882D02*
Y170653D01*
X79409Y168882D02*
X80590D01*
X79409Y179118D02*
X80590D01*
X79409Y177347D02*
Y179118D01*
X80590Y177347D02*
Y179118D01*
X77539Y170653D02*
Y177347D01*
X82461D01*
Y170653D02*
Y177347D01*
X77539Y170653D02*
X82461D01*
X78228Y158031D02*
X81772D01*
X78228Y161969D02*
X81772D01*
X78228Y163347D02*
X81772D01*
Y156653D02*
Y163347D01*
X78228Y156653D02*
X81772D01*
X78228D02*
Y163347D01*
X41933Y40016D02*
Y42181D01*
X46067D01*
Y40016D02*
Y42181D01*
X41933Y40016D02*
X46067D01*
X45181D02*
Y42181D01*
X42819Y40016D02*
Y42181D01*
X41933Y30016D02*
Y32181D01*
X46067D01*
Y30016D02*
Y32181D01*
X41933Y30016D02*
X46067D01*
X45181D02*
Y32181D01*
X42819Y30016D02*
Y32181D01*
X42333Y20016D02*
Y22181D01*
X46467D01*
Y20016D02*
Y22181D01*
X42333Y20016D02*
X46467D01*
X45581D02*
Y22181D01*
X43219Y20016D02*
Y22181D01*
X157067Y60016D02*
Y62181D01*
X152933Y60016D02*
X157067D01*
X152933D02*
Y62181D01*
X157067D01*
X153819Y60016D02*
Y62181D01*
X156181Y60016D02*
Y62181D01*
X157067Y50016D02*
Y52181D01*
X152933Y50016D02*
X157067D01*
X152933D02*
Y52181D01*
X157067D01*
X153819Y50016D02*
Y52181D01*
X156181Y50016D02*
Y52181D01*
X157067Y40016D02*
Y42181D01*
X152933Y40016D02*
X157067D01*
X152933D02*
Y42181D01*
X157067D01*
X153819Y40016D02*
Y42181D01*
X156181Y40016D02*
Y42181D01*
X157067Y160016D02*
Y162181D01*
X152933Y160016D02*
X157067D01*
X152933D02*
Y162181D01*
X157067D01*
X153819Y160016D02*
Y162181D01*
X156181Y160016D02*
Y162181D01*
X157067Y150016D02*
Y152181D01*
X152933Y150016D02*
X157067D01*
X152933D02*
Y152181D01*
X157067D01*
X153819Y150016D02*
Y152181D01*
X156181Y150016D02*
Y152181D01*
X157067Y140016D02*
Y142181D01*
X152933Y140016D02*
X157067D01*
X152933D02*
Y142181D01*
X157067D01*
X153819Y140016D02*
Y142181D01*
X156181Y140016D02*
Y142181D01*
X157067Y130016D02*
Y132181D01*
X152933Y130016D02*
X157067D01*
X152933D02*
Y132181D01*
X157067D01*
X153819Y130016D02*
Y132181D01*
X156181Y130016D02*
Y132181D01*
X157067Y120016D02*
Y122181D01*
X152933Y120016D02*
X157067D01*
X152933D02*
Y122181D01*
X157067D01*
X153819Y120016D02*
Y122181D01*
X156181Y120016D02*
Y122181D01*
X116728Y150654D02*
Y157346D01*
Y150654D02*
X120272D01*
Y157346D01*
X116728D02*
X120272D01*
X116728Y155968D02*
X120272D01*
X116728Y152032D02*
X120272D01*
X95449Y157602D02*
X101551D01*
X95449Y145398D02*
Y157602D01*
Y145398D02*
X101551D01*
Y157602D01*
X95449Y155043D02*
X101551D01*
X95449Y147957D02*
X101551D01*
X106449Y157602D02*
X112551D01*
X106449Y145398D02*
Y157602D01*
Y145398D02*
X112551D01*
Y157602D01*
X106449Y155043D02*
X112551D01*
X106449Y147957D02*
X112551D01*
X87928Y150453D02*
Y157147D01*
Y150453D02*
X91472D01*
Y157147D01*
X87928D02*
X91472D01*
X87928Y155769D02*
X91472D01*
X87928Y151831D02*
X91472D01*
X38324Y208873D02*
X39279Y207917D01*
X60933Y207130D02*
X61882Y208078D01*
X39921Y207276D02*
X40067Y207130D01*
X60933D01*
X40067Y202406D02*
Y207130D01*
X60933Y202406D02*
Y207130D01*
Y208730D02*
X61882Y208078D01*
X39921Y207276D02*
X40067Y207376D01*
X58377Y207130D02*
X61081Y207278D01*
X60933Y211437D02*
X62902Y210084D01*
X60933Y208730D02*
X62902Y210084D01*
X39279Y207917D02*
X40067Y207376D01*
X38317Y208880D02*
X40067Y210083D01*
X38448Y208749D02*
X62902Y210084D01*
X40067Y207376D02*
X60933Y208730D01*
Y214144D02*
X62902Y212790D01*
X60933Y211437D02*
X62902Y212790D01*
X38098Y211436D02*
X40067Y210083D01*
X38098Y211436D02*
X40067Y212789D01*
X38098Y211436D02*
X62902Y212790D01*
X40067Y210083D02*
X60933Y211437D01*
Y216850D02*
X62902Y215497D01*
X60933Y214144D02*
X62902Y215497D01*
X38098Y214143D02*
X40067Y212789D01*
X38098Y214143D02*
X40067Y215496D01*
X38098Y214143D02*
X62902Y215497D01*
X40067Y212789D02*
X60933Y214144D01*
X31760Y196500D02*
X35776D01*
X31760Y197681D02*
X69240D01*
Y196500D02*
Y202406D01*
X31760Y202406D02*
X69240D01*
X31760Y196500D02*
Y202406D01*
X40067Y242563D02*
X60933D01*
X61734Y241762D01*
X38463Y240959D02*
X40067Y242563D01*
Y246500D01*
X60933Y242563D02*
Y246500D01*
X40067D02*
X60933D01*
Y241211D02*
X61734Y241762D01*
X38463Y240959D02*
X40067Y239856D01*
X38749Y241245D02*
X61034Y242462D01*
X60933Y241211D02*
X62902Y239857D01*
X60933Y238504D02*
X62902Y239857D01*
X38098Y238503D02*
X40067Y237150D01*
X38098Y238503D02*
X40067Y239856D01*
X60933Y241211D01*
X38098Y238503D02*
X62902Y239857D01*
X60933Y238504D02*
X62902Y237151D01*
X60933Y235797D02*
X62902Y237151D01*
X38098Y235796D02*
X40067Y234443D01*
X38098Y235796D02*
X40067Y237150D01*
X60933Y238504D01*
X38098Y235796D02*
X62902Y237151D01*
X60933Y235797D02*
X62902Y234444D01*
X60933Y233091D02*
X62902Y234444D01*
X38098Y233090D02*
X40067Y231736D01*
X38098Y233090D02*
X40067Y234443D01*
X60933Y235797D01*
X38098Y233090D02*
X62902Y234444D01*
X60933Y233091D02*
X62902Y231737D01*
X60933Y230384D02*
X62902Y231737D01*
X38098Y230383D02*
X40067Y229030D01*
X38098Y230383D02*
X40067Y231736D01*
X60933Y233091D01*
X38098Y230383D02*
X62902Y231737D01*
X60933Y230384D02*
X62902Y229030D01*
X60933Y227677D02*
X62902Y229030D01*
X38098Y227676D02*
X40067Y226323D01*
X38098Y227676D02*
X40067Y229030D01*
X60933Y230384D01*
X38098Y227676D02*
X62902Y229030D01*
X60933Y227677D02*
X62902Y226324D01*
X60933Y224971D02*
X62902Y226324D01*
X38098Y224970D02*
X40067Y223616D01*
X38098Y224970D02*
X40067Y226323D01*
X60933Y227677D01*
X38098Y224970D02*
X62902Y226324D01*
X60933Y224971D02*
X62902Y223617D01*
X60933Y222264D02*
X62902Y223617D01*
X38098Y222263D02*
X40067Y220910D01*
X38098Y222263D02*
X40067Y223616D01*
X60933Y224971D01*
X38098Y222263D02*
X62902Y223617D01*
X60933Y222264D02*
X62902Y220910D01*
X60933Y219557D02*
X62902Y220910D01*
X38098Y219556D02*
X40067Y218203D01*
X38098Y219556D02*
X40067Y220910D01*
X60933Y222264D01*
X38098Y219556D02*
X62902Y220910D01*
X60933Y216850D02*
X62902Y218204D01*
X60933Y219557D02*
X62902Y218204D01*
X38098Y216849D02*
X40067Y218203D01*
X38098Y216849D02*
X40067Y215496D01*
X38098Y216849D02*
X62902Y218204D01*
X40067Y218203D02*
X60933Y219557D01*
X40067Y215496D02*
X60933Y216850D01*
X65224Y177799D02*
X69240D01*
X49004D02*
X51996D01*
Y197681D01*
X49004Y177799D02*
Y197681D01*
X65224Y177799D02*
Y197681D01*
X35776Y177799D02*
Y197681D01*
X31760Y177799D02*
X35776D01*
X65224Y196500D02*
X69240D01*
Y177799D02*
Y196500D01*
X31760Y177799D02*
Y196500D01*
D42*
X22787Y196850D02*
G03*
X0Y174063I0J-22787D01*
G01*
X196850Y175169D02*
G03*
X175169Y196850I-21682J0D01*
G01*
X188976Y0D02*
G03*
X196850Y7874I0J7874D01*
G01*
X0D02*
G03*
X7874Y0I7874J0D01*
G01*
X22787Y196850D02*
X175169D01*
X196850Y7874D02*
Y175169D01*
X0Y7874D02*
Y174063D01*
X7874Y0D02*
X188976D01*
D43*
X79409Y170260D02*
X80590D01*
X79409Y177740D02*
X80590D01*
M02*
