M48
;Layer_Color=9474304
;FILE_FORMAT=2:5
INCH,LZ
;TYPE=PLATED
T1F00S00C0.02800
T2F00S00C0.03543
T3F00S00C0.12500
%
T01
X01195Y0012
X0112
X0104
X0096
X00885
X00805
X0088189Y0165811
X0096
X0103937Y0165463
X0112Y0165811
X0119685
X0127559
T02
X0166Y00211
Y00311
Y00411
Y00511
Y00611
Y00711
Y00811
Y00911
Y01011
Y01111
X0032Y0111098
Y0101098
Y0091098
Y0081098
Y0071098
Y0061098
Y0051098
Y0041098
Y0031098
Y0021098
Y0121098
Y0131098
Y0141098
Y0151098
Y0161098
X008Y0188
X009
X0166Y01611
Y01511
Y01411
Y01311
Y01211
T03
X001629Y0181088
X018129
M30
