%FSLAX25Y25*%
%MOIN*%
G70*
G01*
G75*
G04 Layer_Physical_Order=1*
G04 Layer_Color=255*
%ADD10C,0.03937*%
G04:AMPARAMS|DCode=11|XSize=19.69mil|YSize=31.5mil|CornerRadius=0.98mil|HoleSize=0mil|Usage=FLASHONLY|Rotation=180.000|XOffset=0mil|YOffset=0mil|HoleType=Round|Shape=RoundedRectangle|*
%AMROUNDEDRECTD11*
21,1,0.01969,0.02953,0,0,180.0*
21,1,0.01772,0.03150,0,0,180.0*
1,1,0.00197,-0.00886,0.01476*
1,1,0.00197,0.00886,0.01476*
1,1,0.00197,0.00886,-0.01476*
1,1,0.00197,-0.00886,-0.01476*
%
%ADD11ROUNDEDRECTD11*%
G04:AMPARAMS|DCode=12|XSize=35.43mil|YSize=39.37mil|CornerRadius=1.77mil|HoleSize=0mil|Usage=FLASHONLY|Rotation=270.000|XOffset=0mil|YOffset=0mil|HoleType=Round|Shape=RoundedRectangle|*
%AMROUNDEDRECTD12*
21,1,0.03543,0.03583,0,0,270.0*
21,1,0.03189,0.03937,0,0,270.0*
1,1,0.00354,-0.01791,-0.01595*
1,1,0.00354,-0.01791,0.01595*
1,1,0.00354,0.01791,0.01595*
1,1,0.00354,0.01791,-0.01595*
%
%ADD12ROUNDEDRECTD12*%
G04:AMPARAMS|DCode=13|XSize=19.69mil|YSize=23.62mil|CornerRadius=0.98mil|HoleSize=0mil|Usage=FLASHONLY|Rotation=0.000|XOffset=0mil|YOffset=0mil|HoleType=Round|Shape=RoundedRectangle|*
%AMROUNDEDRECTD13*
21,1,0.01969,0.02165,0,0,0.0*
21,1,0.01772,0.02362,0,0,0.0*
1,1,0.00197,0.00886,-0.01083*
1,1,0.00197,-0.00886,-0.01083*
1,1,0.00197,-0.00886,0.01083*
1,1,0.00197,0.00886,0.01083*
%
%ADD13ROUNDEDRECTD13*%
G04:AMPARAMS|DCode=14|XSize=47.24mil|YSize=70.87mil|CornerRadius=4.72mil|HoleSize=0mil|Usage=FLASHONLY|Rotation=270.000|XOffset=0mil|YOffset=0mil|HoleType=Round|Shape=RoundedRectangle|*
%AMROUNDEDRECTD14*
21,1,0.04724,0.06142,0,0,270.0*
21,1,0.03780,0.07087,0,0,270.0*
1,1,0.00945,-0.03071,-0.01890*
1,1,0.00945,-0.03071,0.01890*
1,1,0.00945,0.03071,0.01890*
1,1,0.00945,0.03071,-0.01890*
%
%ADD14ROUNDEDRECTD14*%
G04:AMPARAMS|DCode=15|XSize=196.85mil|YSize=78.74mil|CornerRadius=3.94mil|HoleSize=0mil|Usage=FLASHONLY|Rotation=270.000|XOffset=0mil|YOffset=0mil|HoleType=Round|Shape=RoundedRectangle|*
%AMROUNDEDRECTD15*
21,1,0.19685,0.07087,0,0,270.0*
21,1,0.18898,0.07874,0,0,270.0*
1,1,0.00787,-0.03543,-0.09449*
1,1,0.00787,-0.03543,0.09449*
1,1,0.00787,0.03543,0.09449*
1,1,0.00787,0.03543,-0.09449*
%
%ADD15ROUNDEDRECTD15*%
%ADD16C,0.01969*%
%ADD17R,0.05906X0.05906*%
%ADD18C,0.05906*%
%ADD19R,0.05906X0.05906*%
%ADD20C,0.17500*%
%ADD21C,0.05000*%
G36*
X22787Y195229D02*
X175169D01*
X175260Y195247D01*
X177790Y195081D01*
X180367Y194569D01*
X182855Y193724D01*
X185211Y192562D01*
X187395Y191103D01*
X189370Y189370D01*
X191103Y187395D01*
X192562Y185211D01*
X193724Y182855D01*
X194569Y180367D01*
X195081Y177790D01*
X195247Y175260D01*
X195229Y175169D01*
Y7874D01*
X195236Y7836D01*
X195120Y6652D01*
X194763Y5477D01*
X194184Y4394D01*
X193405Y3445D01*
X192456Y2666D01*
X191373Y2087D01*
X190198Y1731D01*
X189014Y1614D01*
X188976Y1622D01*
X7874D01*
X7836Y1614D01*
X6652Y1731D01*
X5477Y2087D01*
X4394Y2666D01*
X3445Y3445D01*
X2666Y4394D01*
X2087Y5477D01*
X1731Y6652D01*
X1614Y7836D01*
X1622Y7874D01*
Y174063D01*
X1602Y174163D01*
X1777Y176829D01*
X2317Y179548D01*
X3208Y182173D01*
X4434Y184659D01*
X5974Y186964D01*
X7802Y189048D01*
X9886Y190876D01*
X12191Y192416D01*
X14677Y193642D01*
X17302Y194533D01*
X20021Y195074D01*
X22687Y195249D01*
X22787Y195229D01*
D02*
G37*
%LPC*%
G36*
X32000Y85085D02*
X30968Y84949D01*
X30007Y84551D01*
X29181Y83918D01*
X28547Y83092D01*
X28149Y82130D01*
X28013Y81098D01*
X28149Y80067D01*
X28547Y79105D01*
X29181Y78279D01*
X30007Y77646D01*
X30968Y77247D01*
X32000Y77112D01*
X33032Y77247D01*
X33993Y77646D01*
X34819Y78279D01*
X35453Y79105D01*
X35851Y80067D01*
X35987Y81098D01*
X35851Y82130D01*
X35453Y83092D01*
X34819Y83918D01*
X33993Y84551D01*
X33032Y84949D01*
X32000Y85085D01*
D02*
G37*
G36*
X166000Y75087D02*
X164968Y74951D01*
X164007Y74553D01*
X163181Y73919D01*
X162547Y73093D01*
X162149Y72132D01*
X162013Y71100D01*
X162149Y70068D01*
X162547Y69107D01*
X163181Y68281D01*
X164007Y67647D01*
X164968Y67249D01*
X166000Y67113D01*
X167032Y67249D01*
X167993Y67647D01*
X168819Y68281D01*
X169453Y69107D01*
X169851Y70068D01*
X169987Y71100D01*
X169851Y72132D01*
X169453Y73093D01*
X168819Y73919D01*
X167993Y74553D01*
X167032Y74951D01*
X166000Y75087D01*
D02*
G37*
G36*
X32000Y75085D02*
X30968Y74949D01*
X30007Y74551D01*
X29181Y73918D01*
X28547Y73092D01*
X28149Y72130D01*
X28013Y71098D01*
X28149Y70066D01*
X28547Y69105D01*
X29181Y68279D01*
X30007Y67646D01*
X30968Y67247D01*
X32000Y67112D01*
X33032Y67247D01*
X33993Y67646D01*
X34819Y68279D01*
X35453Y69105D01*
X35851Y70066D01*
X35987Y71098D01*
X35851Y72130D01*
X35453Y73092D01*
X34819Y73918D01*
X33993Y74551D01*
X33032Y74949D01*
X32000Y75085D01*
D02*
G37*
G36*
X166000Y95087D02*
X164968Y94951D01*
X164007Y94553D01*
X163181Y93919D01*
X162547Y93093D01*
X162149Y92132D01*
X162013Y91100D01*
X162149Y90068D01*
X162547Y89107D01*
X163181Y88281D01*
X164007Y87647D01*
X164968Y87249D01*
X166000Y87113D01*
X167032Y87249D01*
X167993Y87647D01*
X168819Y88281D01*
X169453Y89107D01*
X169851Y90068D01*
X169987Y91100D01*
X169851Y92132D01*
X169453Y93093D01*
X168819Y93919D01*
X167993Y94553D01*
X167032Y94951D01*
X166000Y95087D01*
D02*
G37*
G36*
X32000Y95085D02*
X30968Y94949D01*
X30007Y94551D01*
X29181Y93918D01*
X28547Y93092D01*
X28149Y92130D01*
X28013Y91098D01*
X28149Y90066D01*
X28547Y89105D01*
X29181Y88279D01*
X30007Y87646D01*
X30968Y87247D01*
X32000Y87112D01*
X33032Y87247D01*
X33993Y87646D01*
X34819Y88279D01*
X35453Y89105D01*
X35851Y90066D01*
X35987Y91098D01*
X35851Y92130D01*
X35453Y93092D01*
X34819Y93918D01*
X33993Y94551D01*
X33032Y94949D01*
X32000Y95085D01*
D02*
G37*
G36*
X166000Y85087D02*
X164968Y84951D01*
X164007Y84553D01*
X163181Y83919D01*
X162547Y83093D01*
X162149Y82132D01*
X162013Y81100D01*
X162149Y80068D01*
X162547Y79107D01*
X163181Y78281D01*
X164007Y77647D01*
X164968Y77249D01*
X166000Y77113D01*
X167032Y77249D01*
X167993Y77647D01*
X168819Y78281D01*
X169453Y79107D01*
X169851Y80068D01*
X169987Y81100D01*
X169851Y82132D01*
X169453Y83093D01*
X168819Y83919D01*
X167993Y84553D01*
X167032Y84951D01*
X166000Y85087D01*
D02*
G37*
G36*
Y65087D02*
X164968Y64951D01*
X164007Y64553D01*
X163181Y63919D01*
X162570Y63123D01*
X158126D01*
X157988Y63216D01*
X157559Y63301D01*
X155787D01*
X155359Y63216D01*
X155000Y62976D01*
X154641Y63216D01*
X154213Y63301D01*
X152441D01*
X152012Y63216D01*
X151871Y63122D01*
X118098D01*
X117324Y62968D01*
X116668Y62529D01*
X102569Y48431D01*
X102131Y47774D01*
X101977Y47000D01*
Y14859D01*
X101504Y14496D01*
X100943Y13765D01*
X100590Y12914D01*
X100470Y12000D01*
X100590Y11086D01*
X100943Y10235D01*
X101504Y9504D01*
X102235Y8943D01*
X103086Y8590D01*
X104000Y8470D01*
X104914Y8590D01*
X105765Y8943D01*
X106496Y9504D01*
X107057Y10235D01*
X107410Y11086D01*
X107530Y12000D01*
X107410Y12914D01*
X107057Y13765D01*
X106496Y14496D01*
X106023Y14859D01*
Y46162D01*
X118936Y59075D01*
X151871D01*
X152012Y58981D01*
X152441Y58896D01*
X154213D01*
X154641Y58981D01*
X155000Y59221D01*
X155359Y58981D01*
X155787Y58896D01*
X157559D01*
X157988Y58981D01*
X158131Y59077D01*
X162570D01*
X163181Y58281D01*
X164007Y57647D01*
X164968Y57249D01*
X166000Y57113D01*
X167032Y57249D01*
X167993Y57647D01*
X168819Y58281D01*
X169453Y59107D01*
X169851Y60068D01*
X169987Y61100D01*
X169851Y62132D01*
X169453Y63093D01*
X168819Y63919D01*
X167993Y64553D01*
X167032Y64951D01*
X166000Y65087D01*
D02*
G37*
G36*
X169953Y25053D02*
X162047D01*
Y17147D01*
X169953D01*
Y25053D01*
D02*
G37*
G36*
X32000Y45085D02*
X30968Y44949D01*
X30007Y44551D01*
X29181Y43918D01*
X28547Y43092D01*
X28149Y42130D01*
X28013Y41098D01*
X28149Y40067D01*
X28547Y39105D01*
X29181Y38279D01*
X30007Y37646D01*
X30968Y37247D01*
X32000Y37112D01*
X33032Y37247D01*
X33993Y37646D01*
X34819Y38279D01*
X35430Y39075D01*
X40871D01*
X41012Y38981D01*
X41441Y38896D01*
X43213D01*
X43641Y38981D01*
X44000Y39221D01*
X44359Y38981D01*
X44787Y38896D01*
X46559D01*
X46988Y38981D01*
X47129Y39075D01*
X93064D01*
X93977Y38162D01*
Y14859D01*
X93504Y14496D01*
X92943Y13765D01*
X92590Y12914D01*
X92500Y12229D01*
X92000D01*
X91910Y12914D01*
X91557Y13765D01*
X90996Y14496D01*
X90523Y14859D01*
Y28000D01*
X90369Y28774D01*
X89931Y29431D01*
X86832Y32529D01*
X86176Y32967D01*
X85402Y33122D01*
X47129D01*
X46988Y33216D01*
X46559Y33301D01*
X44787D01*
X44359Y33216D01*
X44000Y32976D01*
X43641Y33216D01*
X43213Y33301D01*
X41441D01*
X41012Y33216D01*
X40871Y33122D01*
X35430D01*
X34819Y33918D01*
X33993Y34551D01*
X33032Y34949D01*
X32000Y35085D01*
X30968Y34949D01*
X30007Y34551D01*
X29181Y33918D01*
X28547Y33092D01*
X28149Y32130D01*
X28013Y31098D01*
X28149Y30067D01*
X28547Y29105D01*
X29181Y28279D01*
X30007Y27646D01*
X30968Y27247D01*
X32000Y27112D01*
X33032Y27247D01*
X33993Y27646D01*
X34819Y28279D01*
X35430Y29075D01*
X40871D01*
X41012Y28981D01*
X41441Y28896D01*
X43213D01*
X43641Y28981D01*
X44000Y29221D01*
X44359Y28981D01*
X44787Y28896D01*
X46559D01*
X46988Y28981D01*
X47129Y29075D01*
X84564D01*
X86477Y27162D01*
Y14859D01*
X86004Y14496D01*
X85443Y13765D01*
X85090Y12914D01*
X84970Y12000D01*
X85090Y11086D01*
X85443Y10235D01*
X86004Y9504D01*
X86735Y8943D01*
X87586Y8590D01*
X88500Y8470D01*
X89414Y8590D01*
X90265Y8943D01*
X90996Y9504D01*
X91557Y10235D01*
X91910Y11086D01*
X92000Y11771D01*
X92500D01*
X92590Y11086D01*
X92943Y10235D01*
X93504Y9504D01*
X94235Y8943D01*
X95086Y8590D01*
X96000Y8470D01*
X96914Y8590D01*
X97765Y8943D01*
X98496Y9504D01*
X99057Y10235D01*
X99410Y11086D01*
X99530Y12000D01*
X99410Y12914D01*
X99057Y13765D01*
X98496Y14496D01*
X98023Y14859D01*
Y39000D01*
X97869Y39774D01*
X97431Y40431D01*
X95332Y42529D01*
X94676Y42968D01*
X93902Y43122D01*
X47129D01*
X46988Y43216D01*
X46559Y43301D01*
X44787D01*
X44359Y43216D01*
X44000Y42976D01*
X43641Y43216D01*
X43213Y43301D01*
X41441D01*
X41012Y43216D01*
X40871Y43122D01*
X35430D01*
X34819Y43918D01*
X33993Y44551D01*
X33032Y44949D01*
X32000Y45085D01*
D02*
G37*
G36*
X35953Y25051D02*
X28047D01*
Y17146D01*
X35953D01*
Y19075D01*
X41271D01*
X41412Y18981D01*
X41841Y18896D01*
X43613D01*
X44041Y18981D01*
X44400Y19221D01*
X44759Y18981D01*
X45187Y18896D01*
X46959D01*
X47388Y18981D01*
X47529Y19075D01*
X56064D01*
X64569Y10570D01*
X64569Y10570D01*
X64569D01*
X64569Y10569D01*
X64569D01*
X64569Y10569D01*
Y10569D01*
Y10569D01*
D01*
D01*
X64569D01*
Y10569D01*
X65226Y10131D01*
X66000Y9977D01*
X77641D01*
X78004Y9504D01*
X78735Y8943D01*
X79586Y8590D01*
X80500Y8470D01*
X81414Y8590D01*
X82265Y8943D01*
X82996Y9504D01*
X83557Y10235D01*
X83910Y11086D01*
X84030Y12000D01*
X83910Y12914D01*
X83557Y13765D01*
X82996Y14496D01*
X82265Y15057D01*
X81414Y15410D01*
X80500Y15530D01*
X79586Y15410D01*
X78735Y15057D01*
X78004Y14496D01*
X77641Y14023D01*
X66838D01*
X58332Y22529D01*
X57676Y22967D01*
X56902Y23122D01*
X47529D01*
X47388Y23216D01*
X46959Y23301D01*
X45187D01*
X44759Y23216D01*
X44400Y22976D01*
X44041Y23216D01*
X43613Y23301D01*
X41841D01*
X41412Y23216D01*
X41271Y23122D01*
X35953D01*
Y25051D01*
D02*
G37*
G36*
X32000Y65085D02*
X30968Y64949D01*
X30007Y64551D01*
X29181Y63918D01*
X28547Y63092D01*
X28149Y62130D01*
X28013Y61098D01*
X28149Y60066D01*
X28547Y59105D01*
X29181Y58279D01*
X30007Y57646D01*
X30968Y57247D01*
X32000Y57112D01*
X33032Y57247D01*
X33993Y57646D01*
X34819Y58279D01*
X35453Y59105D01*
X35851Y60066D01*
X35987Y61098D01*
X35851Y62130D01*
X35453Y63092D01*
X34819Y63918D01*
X33993Y64551D01*
X33032Y64949D01*
X32000Y65085D01*
D02*
G37*
G36*
X166000Y55087D02*
X164968Y54951D01*
X164007Y54553D01*
X163181Y53919D01*
X162570Y53123D01*
X158126D01*
X157988Y53216D01*
X157559Y53301D01*
X155787D01*
X155359Y53216D01*
X155000Y52976D01*
X154641Y53216D01*
X154213Y53301D01*
X152441D01*
X152012Y53216D01*
X151871Y53122D01*
X120098D01*
X119324Y52968D01*
X118668Y52529D01*
X118169Y52031D01*
X110569Y44431D01*
X110131Y43774D01*
X109977Y43000D01*
Y14859D01*
X109504Y14496D01*
X108943Y13765D01*
X108590Y12914D01*
X108470Y12000D01*
X108590Y11086D01*
X108943Y10235D01*
X109504Y9504D01*
X110235Y8943D01*
X111086Y8590D01*
X112000Y8470D01*
X112914Y8590D01*
X113765Y8943D01*
X114496Y9504D01*
X115057Y10235D01*
X115410Y11086D01*
X115500Y11771D01*
X116000D01*
X116090Y11086D01*
X116443Y10235D01*
X117004Y9504D01*
X117735Y8943D01*
X118586Y8590D01*
X119500Y8470D01*
X120414Y8590D01*
X121265Y8943D01*
X121996Y9504D01*
X122557Y10235D01*
X122910Y11086D01*
X123030Y12000D01*
X122910Y12914D01*
X122557Y13765D01*
X121996Y14496D01*
X121523Y14859D01*
Y36662D01*
X123936Y39075D01*
X151871D01*
X152012Y38981D01*
X152441Y38896D01*
X154213D01*
X154641Y38981D01*
X155000Y39221D01*
X155359Y38981D01*
X155787Y38896D01*
X157559D01*
X157988Y38981D01*
X158131Y39077D01*
X162570D01*
X163181Y38281D01*
X164007Y37647D01*
X164968Y37249D01*
X166000Y37113D01*
X167032Y37249D01*
X167993Y37647D01*
X168819Y38281D01*
X169453Y39107D01*
X169851Y40068D01*
X169987Y41100D01*
X169851Y42132D01*
X169453Y43093D01*
X168819Y43919D01*
X167993Y44553D01*
X167032Y44951D01*
X166000Y45087D01*
X164968Y44951D01*
X164007Y44553D01*
X163181Y43919D01*
X162570Y43123D01*
X158126D01*
X157988Y43216D01*
X157559Y43301D01*
X156784D01*
X156673Y43323D01*
X156562Y43301D01*
X155787D01*
X155359Y43216D01*
X155000Y42976D01*
X154641Y43216D01*
X154213Y43301D01*
X152441D01*
X152012Y43216D01*
X151871Y43122D01*
X123098D01*
X122324Y42968D01*
X121668Y42529D01*
X118069Y38931D01*
X117631Y38274D01*
X117477Y37500D01*
Y14859D01*
X117004Y14496D01*
X116443Y13765D01*
X116090Y12914D01*
X116000Y12229D01*
X115500D01*
X115410Y12914D01*
X115057Y13765D01*
X114496Y14496D01*
X114023Y14859D01*
Y42162D01*
X120936Y49075D01*
X151871D01*
X152012Y48981D01*
X152441Y48896D01*
X154213D01*
X154641Y48981D01*
X155000Y49221D01*
X155359Y48981D01*
X155787Y48896D01*
X157559D01*
X157988Y48981D01*
X158131Y49077D01*
X162570D01*
X163181Y48281D01*
X164007Y47647D01*
X164968Y47249D01*
X166000Y47113D01*
X167032Y47249D01*
X167993Y47647D01*
X168819Y48281D01*
X169453Y49107D01*
X169851Y50068D01*
X169987Y51100D01*
X169851Y52132D01*
X169453Y53093D01*
X168819Y53919D01*
X167993Y54553D01*
X167032Y54951D01*
X166000Y55087D01*
D02*
G37*
G36*
X32000Y55085D02*
X30968Y54949D01*
X30007Y54551D01*
X29181Y53918D01*
X28547Y53092D01*
X28149Y52130D01*
X28013Y51098D01*
X28149Y50067D01*
X28547Y49105D01*
X29181Y48279D01*
X30007Y47646D01*
X30968Y47247D01*
X32000Y47112D01*
X33032Y47247D01*
X33993Y47646D01*
X34819Y48279D01*
X35453Y49105D01*
X35851Y50067D01*
X35987Y51098D01*
X35851Y52130D01*
X35453Y53092D01*
X34819Y53918D01*
X33993Y54551D01*
X33032Y54949D01*
X32000Y55085D01*
D02*
G37*
G36*
Y165085D02*
X30968Y164949D01*
X30007Y164551D01*
X29181Y163918D01*
X28547Y163092D01*
X28149Y162130D01*
X28013Y161098D01*
X28149Y160067D01*
X28547Y159105D01*
X29181Y158279D01*
X30007Y157646D01*
X30968Y157247D01*
X32000Y157112D01*
X33032Y157247D01*
X33993Y157646D01*
X34819Y158279D01*
X35453Y159105D01*
X35851Y160067D01*
X35987Y161098D01*
X35851Y162130D01*
X35453Y163092D01*
X34819Y163918D01*
X33993Y164551D01*
X33032Y164949D01*
X32000Y165085D01*
D02*
G37*
G36*
X80000Y172270D02*
X79225Y172168D01*
X78503Y171869D01*
X77883Y171393D01*
X77407Y170773D01*
X77108Y170051D01*
X77006Y169276D01*
Y163000D01*
X77008Y162980D01*
Y161406D01*
X77100Y160946D01*
X77360Y160557D01*
X77749Y160297D01*
X77984Y160250D01*
Y159750D01*
X77749Y159703D01*
X77360Y159443D01*
X77100Y159054D01*
X77008Y158595D01*
Y155405D01*
X77100Y154946D01*
X77360Y154557D01*
X77749Y154297D01*
X78209Y154205D01*
X78990D01*
X79708Y153908D01*
X80483Y153806D01*
X94749D01*
X94855Y153735D01*
X95429Y153621D01*
X101571D01*
X102145Y153735D01*
X102251Y153806D01*
X105749D01*
X105855Y153735D01*
X106429Y153621D01*
X112571D01*
X113145Y153735D01*
X113251Y153806D01*
X118300D01*
X119075Y153908D01*
X119793Y154205D01*
X120291D01*
X120751Y154297D01*
X121140Y154557D01*
X121400Y154946D01*
X121492Y155405D01*
Y158595D01*
X121400Y159054D01*
X121140Y159443D01*
X120751Y159703D01*
X120291Y159795D01*
X116709D01*
X116706Y159794D01*
X113745D01*
X113632Y159963D01*
X113145Y160289D01*
X112571Y160403D01*
X106931D01*
Y163616D01*
X106994Y163698D01*
X107347Y164549D01*
X107467Y165463D01*
X107347Y166377D01*
X106994Y167228D01*
X106433Y167959D01*
X105702Y168520D01*
X104851Y168873D01*
X103937Y168993D01*
X103023Y168873D01*
X102172Y168520D01*
X101441Y167959D01*
X100880Y167228D01*
X100527Y166377D01*
X100407Y165463D01*
X100527Y164549D01*
X100880Y163698D01*
X100943Y163616D01*
Y160403D01*
X95429D01*
X94855Y160289D01*
X94368Y159963D01*
X94255Y159794D01*
X82275D01*
X82226Y160292D01*
X82251Y160297D01*
X82640Y160557D01*
X82900Y160946D01*
X82992Y161406D01*
Y162980D01*
X82994Y163000D01*
Y169276D01*
X82892Y170051D01*
X82593Y170773D01*
X82117Y171393D01*
X81497Y171869D01*
X80775Y172168D01*
X80000Y172270D01*
D02*
G37*
G36*
X32000Y155085D02*
X30968Y154949D01*
X30007Y154551D01*
X29181Y153918D01*
X28547Y153092D01*
X28149Y152130D01*
X28013Y151098D01*
X28149Y150067D01*
X28547Y149105D01*
X29181Y148279D01*
X30007Y147646D01*
X30968Y147247D01*
X32000Y147112D01*
X33032Y147247D01*
X33993Y147646D01*
X34819Y148279D01*
X35453Y149105D01*
X35851Y150067D01*
X35987Y151098D01*
X35851Y152130D01*
X35453Y153092D01*
X34819Y153918D01*
X33993Y154551D01*
X33032Y154949D01*
X32000Y155085D01*
D02*
G37*
G36*
X137000Y183023D02*
X97000D01*
X96226Y182869D01*
X95569Y182431D01*
X86758Y173620D01*
X86320Y172963D01*
X86166Y172189D01*
Y168670D01*
X85693Y168307D01*
X85132Y167576D01*
X84779Y166725D01*
X84659Y165811D01*
X84779Y164897D01*
X85132Y164046D01*
X85693Y163315D01*
X86424Y162754D01*
X87275Y162401D01*
X88189Y162281D01*
X89103Y162401D01*
X89954Y162754D01*
X90685Y163315D01*
X91246Y164046D01*
X91599Y164897D01*
X91719Y165811D01*
X91599Y166725D01*
X91246Y167576D01*
X90685Y168307D01*
X90212Y168670D01*
Y171351D01*
X97838Y178977D01*
X100462D01*
X100654Y178515D01*
X94569Y172431D01*
X94131Y171774D01*
X93977Y171000D01*
Y168670D01*
X93504Y168307D01*
X92943Y167576D01*
X92590Y166725D01*
X92470Y165811D01*
X92590Y164897D01*
X92943Y164046D01*
X93504Y163315D01*
X94235Y162754D01*
X95086Y162401D01*
X96000Y162281D01*
X96914Y162401D01*
X97765Y162754D01*
X98496Y163315D01*
X99057Y164046D01*
X99410Y164897D01*
X99530Y165811D01*
X99410Y166725D01*
X99057Y167576D01*
X98496Y168307D01*
X98023Y168670D01*
Y170162D01*
X103838Y175977D01*
X114462D01*
X114654Y175515D01*
X110569Y171431D01*
X110131Y170774D01*
X109977Y170000D01*
Y168670D01*
X109504Y168307D01*
X108943Y167576D01*
X108590Y166725D01*
X108470Y165811D01*
X108590Y164897D01*
X108943Y164046D01*
X109504Y163315D01*
X110235Y162754D01*
X111086Y162401D01*
X112000Y162281D01*
X112914Y162401D01*
X113765Y162754D01*
X114496Y163315D01*
X115057Y164046D01*
X115410Y164897D01*
X115530Y165811D01*
X115410Y166725D01*
X115057Y167576D01*
X114496Y168307D01*
X114023Y168670D01*
Y169162D01*
X117838Y172977D01*
X119463D01*
X119654Y172515D01*
X118254Y171116D01*
X117816Y170459D01*
X117662Y169685D01*
Y168670D01*
X117189Y168307D01*
X116628Y167576D01*
X116275Y166725D01*
X116155Y165811D01*
X116275Y164897D01*
X116628Y164046D01*
X117189Y163315D01*
X117920Y162754D01*
X118771Y162401D01*
X119685Y162281D01*
X120599Y162401D01*
X121450Y162754D01*
X122181Y163315D01*
X122742Y164046D01*
X123095Y164897D01*
X123215Y165811D01*
X123095Y166725D01*
X122742Y167576D01*
X122181Y168307D01*
X121909Y168516D01*
X121876Y169015D01*
X122838Y169977D01*
X130162D01*
X130977Y169162D01*
Y167884D01*
X130503Y167723D01*
X130055Y168307D01*
X129324Y168868D01*
X128473Y169221D01*
X127559Y169341D01*
X126645Y169221D01*
X125794Y168868D01*
X125063Y168307D01*
X124502Y167576D01*
X124149Y166725D01*
X124029Y165811D01*
X124149Y164897D01*
X124502Y164046D01*
X125063Y163315D01*
X125536Y162952D01*
Y126441D01*
X125536Y126441D01*
X125536D01*
X125690Y125667D01*
X126128Y125010D01*
X131471Y119668D01*
X132127Y119229D01*
X132902Y119075D01*
X151871D01*
X152012Y118981D01*
X152441Y118896D01*
X154213D01*
X154641Y118981D01*
X155000Y119221D01*
X155359Y118981D01*
X155787Y118896D01*
X157559D01*
X157988Y118981D01*
X158129Y119075D01*
X162571D01*
X163181Y118281D01*
X164007Y117647D01*
X164968Y117249D01*
X166000Y117113D01*
X167032Y117249D01*
X167993Y117647D01*
X168819Y118281D01*
X169453Y119107D01*
X169851Y120068D01*
X169987Y121100D01*
X169851Y122132D01*
X169453Y123093D01*
X168819Y123919D01*
X167993Y124553D01*
X167032Y124951D01*
X166000Y125087D01*
X164968Y124951D01*
X164007Y124553D01*
X163181Y123919D01*
X162569Y123122D01*
X158129D01*
X157988Y123216D01*
X157559Y123301D01*
X155787D01*
X155359Y123216D01*
X155000Y122976D01*
X154641Y123216D01*
X154213Y123301D01*
X152441D01*
X152012Y123216D01*
X151871Y123122D01*
X133740D01*
X129582Y127279D01*
Y162952D01*
X130055Y163315D01*
X130503Y163899D01*
X130977Y163738D01*
Y134000D01*
X130977Y134000D01*
X130977D01*
X131131Y133226D01*
X131569Y132569D01*
X134471Y129668D01*
X135127Y129229D01*
X135902Y129075D01*
X151871D01*
X152012Y128981D01*
X152441Y128896D01*
X154213D01*
X154641Y128981D01*
X155000Y129221D01*
X155359Y128981D01*
X155787Y128896D01*
X157559D01*
X157988Y128981D01*
X158129Y129075D01*
X162571D01*
X163181Y128281D01*
X164007Y127647D01*
X164968Y127249D01*
X166000Y127113D01*
X167032Y127249D01*
X167993Y127647D01*
X168819Y128281D01*
X169453Y129107D01*
X169851Y130068D01*
X169987Y131100D01*
X169851Y132132D01*
X169453Y133093D01*
X168819Y133919D01*
X167993Y134553D01*
X167032Y134951D01*
X166000Y135087D01*
X164968Y134951D01*
X164007Y134553D01*
X163181Y133919D01*
X162569Y133122D01*
X158129D01*
X157988Y133216D01*
X157559Y133301D01*
X155787D01*
X155359Y133216D01*
X155000Y132976D01*
X154641Y133216D01*
X154213Y133301D01*
X152441D01*
X152012Y133216D01*
X151871Y133122D01*
X136740D01*
X135023Y134838D01*
Y142526D01*
X135502Y142671D01*
X135569Y142569D01*
X138471Y139668D01*
X139127Y139229D01*
X139902Y139075D01*
X151871D01*
X152012Y138981D01*
X152441Y138896D01*
X154213D01*
X154641Y138981D01*
X155000Y139221D01*
X155359Y138981D01*
X155787Y138896D01*
X157559D01*
X157988Y138981D01*
X158129Y139075D01*
X162571D01*
X163181Y138281D01*
X164007Y137647D01*
X164968Y137249D01*
X166000Y137113D01*
X167032Y137249D01*
X167993Y137647D01*
X168819Y138281D01*
X169453Y139107D01*
X169851Y140068D01*
X169987Y141100D01*
X169851Y142132D01*
X169453Y143093D01*
X168819Y143919D01*
X167993Y144553D01*
X167032Y144951D01*
X166000Y145087D01*
X164968Y144951D01*
X164007Y144553D01*
X163181Y143919D01*
X162569Y143122D01*
X158129D01*
X157988Y143216D01*
X157559Y143301D01*
X155787D01*
X155359Y143216D01*
X155000Y142976D01*
X154641Y143216D01*
X154213Y143301D01*
X152441D01*
X152012Y143216D01*
X151871Y143122D01*
X140740D01*
X139023Y144838D01*
Y151462D01*
X139485Y151654D01*
X141569Y149569D01*
X142226Y149131D01*
X143000Y148977D01*
X152033D01*
X152441Y148896D01*
X154213D01*
X154641Y148981D01*
X155000Y149221D01*
X155359Y148981D01*
X155787Y148896D01*
X157559D01*
X157988Y148981D01*
X158129Y149075D01*
X162571D01*
X163181Y148281D01*
X164007Y147647D01*
X164968Y147249D01*
X166000Y147113D01*
X167032Y147249D01*
X167993Y147647D01*
X168819Y148281D01*
X169453Y149107D01*
X169851Y150068D01*
X169987Y151100D01*
X169851Y152132D01*
X169453Y153093D01*
X168819Y153919D01*
X167993Y154553D01*
X167032Y154951D01*
X166000Y155087D01*
X164968Y154951D01*
X164007Y154553D01*
X163181Y153919D01*
X162569Y153122D01*
X158129D01*
X157988Y153216D01*
X157559Y153301D01*
X155787D01*
X155359Y153216D01*
X155000Y152976D01*
X154641Y153216D01*
X154213Y153301D01*
X152441D01*
X152012Y153216D01*
X151724Y153023D01*
X143838D01*
X142023Y154838D01*
Y160462D01*
X142485Y160654D01*
X143471Y159668D01*
X144127Y159229D01*
X144902Y159075D01*
X151871D01*
X152012Y158981D01*
X152441Y158896D01*
X154213D01*
X154641Y158981D01*
X155000Y159221D01*
X155359Y158981D01*
X155787Y158896D01*
X157559D01*
X157988Y158981D01*
X158129Y159075D01*
X162571D01*
X163181Y158281D01*
X164007Y157647D01*
X164968Y157249D01*
X166000Y157113D01*
X167032Y157249D01*
X167993Y157647D01*
X168819Y158281D01*
X169453Y159107D01*
X169851Y160068D01*
X169987Y161100D01*
X169851Y162132D01*
X169453Y163093D01*
X168819Y163919D01*
X167993Y164553D01*
X167032Y164951D01*
X166000Y165087D01*
X164968Y164951D01*
X164007Y164553D01*
X163181Y163919D01*
X162569Y163122D01*
X158129D01*
X157988Y163216D01*
X157559Y163301D01*
X155787D01*
X155359Y163216D01*
X155000Y162976D01*
X154641Y163216D01*
X154213Y163301D01*
X152441D01*
X152012Y163216D01*
X151871Y163122D01*
X145740D01*
X145023Y163838D01*
Y175000D01*
X144869Y175774D01*
X144431Y176431D01*
X138431Y182431D01*
X137774Y182869D01*
X137000Y183023D01*
D02*
G37*
G36*
X83953Y191953D02*
X76047D01*
Y184047D01*
X77006D01*
Y178724D01*
X77108Y177950D01*
X77407Y177227D01*
X77883Y176607D01*
X78503Y176131D01*
X79225Y175832D01*
X80000Y175730D01*
X80775Y175832D01*
X81497Y176131D01*
X82117Y176607D01*
X82593Y177227D01*
X82892Y177950D01*
X82994Y178724D01*
Y184047D01*
X83953D01*
Y191953D01*
D02*
G37*
G36*
X181290Y190886D02*
X179379Y190697D01*
X177541Y190140D01*
X175847Y189234D01*
X174362Y188016D01*
X173144Y186531D01*
X172239Y184838D01*
X171681Y183000D01*
X171493Y181088D01*
X171681Y179177D01*
X172239Y177339D01*
X173144Y175645D01*
X174362Y174161D01*
X175847Y172942D01*
X177541Y172037D01*
X179379Y171479D01*
X181290Y171291D01*
X183201Y171479D01*
X185039Y172037D01*
X186733Y172942D01*
X188218Y174161D01*
X189436Y175645D01*
X190341Y177339D01*
X190899Y179177D01*
X191087Y181088D01*
X190899Y183000D01*
X190341Y184838D01*
X189436Y186531D01*
X188218Y188016D01*
X186733Y189234D01*
X185039Y190140D01*
X183201Y190697D01*
X181290Y190886D01*
D02*
G37*
G36*
X16290D02*
X14379Y190697D01*
X12541Y190140D01*
X10847Y189234D01*
X9362Y188016D01*
X8144Y186531D01*
X7239Y184838D01*
X6681Y183000D01*
X6493Y181088D01*
X6681Y179177D01*
X7239Y177339D01*
X8144Y175645D01*
X9362Y174161D01*
X10847Y172942D01*
X12541Y172037D01*
X14379Y171479D01*
X16290Y171291D01*
X18201Y171479D01*
X20039Y172037D01*
X21733Y172942D01*
X23218Y174161D01*
X24436Y175645D01*
X25341Y177339D01*
X25899Y179177D01*
X26087Y181088D01*
X25899Y183000D01*
X25341Y184838D01*
X24436Y186531D01*
X23218Y188016D01*
X21733Y189234D01*
X20039Y190140D01*
X18201Y190697D01*
X16290Y190886D01*
D02*
G37*
G36*
X32000Y115085D02*
X30968Y114949D01*
X30007Y114551D01*
X29181Y113918D01*
X28547Y113092D01*
X28149Y112130D01*
X28013Y111098D01*
X28149Y110067D01*
X28547Y109105D01*
X29181Y108279D01*
X30007Y107646D01*
X30968Y107247D01*
X32000Y107112D01*
X33032Y107247D01*
X33993Y107646D01*
X34819Y108279D01*
X35453Y109105D01*
X35851Y110067D01*
X35987Y111098D01*
X35851Y112130D01*
X35453Y113092D01*
X34819Y113918D01*
X33993Y114551D01*
X33032Y114949D01*
X32000Y115085D01*
D02*
G37*
G36*
X166000Y105087D02*
X164968Y104951D01*
X164007Y104553D01*
X163181Y103919D01*
X162547Y103093D01*
X162149Y102132D01*
X162013Y101100D01*
X162149Y100068D01*
X162547Y99107D01*
X163181Y98281D01*
X164007Y97647D01*
X164968Y97249D01*
X166000Y97113D01*
X167032Y97249D01*
X167993Y97647D01*
X168819Y98281D01*
X169453Y99107D01*
X169851Y100068D01*
X169987Y101100D01*
X169851Y102132D01*
X169453Y103093D01*
X168819Y103919D01*
X167993Y104553D01*
X167032Y104951D01*
X166000Y105087D01*
D02*
G37*
G36*
X32000Y105085D02*
X30968Y104949D01*
X30007Y104551D01*
X29181Y103918D01*
X28547Y103092D01*
X28149Y102130D01*
X28013Y101098D01*
X28149Y100066D01*
X28547Y99105D01*
X29181Y98279D01*
X30007Y97646D01*
X30968Y97247D01*
X32000Y97112D01*
X33032Y97247D01*
X33993Y97646D01*
X34819Y98279D01*
X35453Y99105D01*
X35851Y100066D01*
X35987Y101098D01*
X35851Y102130D01*
X35453Y103092D01*
X34819Y103918D01*
X33993Y104551D01*
X33032Y104949D01*
X32000Y105085D01*
D02*
G37*
G36*
X166000Y115087D02*
X164968Y114951D01*
X164007Y114553D01*
X163181Y113919D01*
X162547Y113093D01*
X162149Y112132D01*
X162013Y111100D01*
X162149Y110068D01*
X162547Y109107D01*
X163181Y108281D01*
X164007Y107647D01*
X164968Y107249D01*
X166000Y107113D01*
X167032Y107249D01*
X167993Y107647D01*
X168819Y108281D01*
X169453Y109107D01*
X169851Y110068D01*
X169987Y111100D01*
X169851Y112132D01*
X169453Y113093D01*
X168819Y113919D01*
X167993Y114553D01*
X167032Y114951D01*
X166000Y115087D01*
D02*
G37*
G36*
X32000Y145085D02*
X30968Y144949D01*
X30007Y144551D01*
X29181Y143918D01*
X28547Y143092D01*
X28149Y142130D01*
X28013Y141098D01*
X28149Y140067D01*
X28547Y139105D01*
X29181Y138279D01*
X30007Y137646D01*
X30968Y137247D01*
X32000Y137112D01*
X33032Y137247D01*
X33993Y137646D01*
X34819Y138279D01*
X35453Y139105D01*
X35851Y140067D01*
X35987Y141098D01*
X35851Y142130D01*
X35453Y143092D01*
X34819Y143918D01*
X33993Y144551D01*
X33032Y144949D01*
X32000Y145085D01*
D02*
G37*
G36*
Y135085D02*
X30968Y134949D01*
X30007Y134551D01*
X29181Y133918D01*
X28547Y133092D01*
X28149Y132130D01*
X28013Y131098D01*
X28149Y130067D01*
X28547Y129105D01*
X29181Y128279D01*
X30007Y127646D01*
X30968Y127247D01*
X32000Y127112D01*
X33032Y127247D01*
X33993Y127646D01*
X34819Y128279D01*
X35453Y129105D01*
X35851Y130067D01*
X35987Y131098D01*
X35851Y132130D01*
X35453Y133092D01*
X34819Y133918D01*
X33993Y134551D01*
X33032Y134949D01*
X32000Y135085D01*
D02*
G37*
G36*
Y125085D02*
X30968Y124949D01*
X30007Y124551D01*
X29181Y123918D01*
X28547Y123092D01*
X28149Y122130D01*
X28013Y121098D01*
X28149Y120067D01*
X28547Y119105D01*
X29181Y118279D01*
X30007Y117646D01*
X30968Y117247D01*
X32000Y117112D01*
X33032Y117247D01*
X33993Y117646D01*
X34819Y118279D01*
X35453Y119105D01*
X35851Y120067D01*
X35987Y121098D01*
X35851Y122130D01*
X35453Y123092D01*
X34819Y123918D01*
X33993Y124551D01*
X33032Y124949D01*
X32000Y125085D01*
D02*
G37*
%LPD*%
D10*
X103937Y157435D02*
G03*
X104200Y156800I898J0D01*
G01*
X80483D02*
X89700D01*
X104200D02*
X118300D01*
X98500D02*
X104200D01*
X103937Y157435D02*
Y165463D01*
X98288Y156800D02*
X98500Y157012D01*
X89700Y156800D02*
X98288D01*
X80000Y163000D02*
Y169276D01*
Y178724D02*
Y188000D01*
D11*
Y169276D02*
D03*
Y178724D02*
D03*
D12*
Y163000D02*
D03*
Y157000D02*
D03*
X118500Y151000D02*
D03*
Y157000D02*
D03*
X89700Y150800D02*
D03*
Y156800D02*
D03*
D13*
X42327Y41098D02*
D03*
X45673D02*
D03*
X42327Y31098D02*
D03*
X45673D02*
D03*
X42727Y21098D02*
D03*
X46073D02*
D03*
X156673Y61098D02*
D03*
X153327D02*
D03*
X156673Y51098D02*
D03*
X153327D02*
D03*
X156673Y41098D02*
D03*
X153327D02*
D03*
X156673Y161098D02*
D03*
X153327D02*
D03*
X156673Y151098D02*
D03*
X153327D02*
D03*
X156673Y141098D02*
D03*
X153327D02*
D03*
X156673Y131098D02*
D03*
X153327D02*
D03*
X156673Y121098D02*
D03*
X153327D02*
D03*
D14*
X98500Y157012D02*
D03*
Y145988D02*
D03*
X109500Y157012D02*
D03*
Y145988D02*
D03*
D15*
X67232Y184689D02*
D03*
X33768D02*
D03*
D16*
X32000Y21098D02*
X42727D01*
X32000Y31098D02*
X42327D01*
X32000Y41098D02*
X42327D01*
X46073Y21098D02*
X56902D01*
X45673Y31098D02*
X85402D01*
X88500Y28000D01*
X45673Y41098D02*
X93902D01*
X96000Y39000D01*
X104000Y12000D02*
Y47000D01*
X112000Y43000D02*
X119600Y50600D01*
X112000Y12000D02*
Y43000D01*
X119500Y37500D02*
X123098Y41098D01*
X119500Y12500D02*
Y37500D01*
X119600Y50600D02*
X120098Y51098D01*
X66000Y12000D02*
X80500D01*
X56902Y21098D02*
X66000Y12000D01*
X88500D02*
Y28000D01*
X96000Y12000D02*
Y39000D01*
X123098Y41098D02*
X153327D01*
X120098Y51098D02*
X153327D01*
X104000Y47000D02*
X118098Y61098D01*
X153327D01*
X156673Y51098D02*
X156675Y51100D01*
X166000D01*
X156673Y41300D02*
X156873Y41100D01*
X166000D01*
X156675Y61100D02*
X166000D01*
X156673Y121098D02*
X165998D01*
X156673Y131098D02*
X165998D01*
X156673Y141098D02*
X165998D01*
X156673Y151098D02*
X165998D01*
X156673Y161098D02*
X165998D01*
X88189Y165811D02*
Y172189D01*
X97000Y181000D01*
X137000D01*
X143000Y175000D01*
X103000Y178000D02*
X135000D01*
X140000Y173000D01*
X143000Y163000D02*
Y175000D01*
X140000Y154000D02*
Y173000D01*
X143000Y163000D02*
X144902Y161098D01*
X153327D01*
X96000Y171000D02*
X103000Y178000D01*
X137000Y144000D02*
Y171000D01*
X140000Y154000D02*
X143000Y151000D01*
X137000Y144000D02*
X139902Y141098D01*
X143000Y151000D02*
X153000D01*
X133000Y175000D02*
X137000Y171000D01*
X117000Y175000D02*
X133000D01*
X131000Y172000D02*
X133000Y170000D01*
X122000Y172000D02*
X131000D01*
X112000Y170000D02*
X117000Y175000D01*
X119685Y169685D02*
X122000Y172000D01*
X96000Y165811D02*
Y171000D01*
X139902Y141098D02*
X153327D01*
X133000Y134000D02*
Y170000D01*
X112000Y165811D02*
Y170000D01*
X135902Y131098D02*
X153327D01*
X133000Y134000D02*
X135902Y131098D01*
X127559Y126441D02*
Y165811D01*
Y126441D02*
X132902Y121098D01*
X119685Y165811D02*
Y169685D01*
X132902Y121098D02*
X153327D01*
D17*
X80000Y188000D02*
D03*
D18*
X90000D02*
D03*
X166000Y31100D02*
D03*
Y41100D02*
D03*
Y51100D02*
D03*
Y61100D02*
D03*
Y71100D02*
D03*
Y81100D02*
D03*
Y91100D02*
D03*
Y101100D02*
D03*
Y111100D02*
D03*
Y121100D02*
D03*
Y131100D02*
D03*
Y141100D02*
D03*
Y151100D02*
D03*
Y161100D02*
D03*
X32000Y161098D02*
D03*
Y151098D02*
D03*
Y141098D02*
D03*
Y131098D02*
D03*
Y121098D02*
D03*
Y111098D02*
D03*
Y101098D02*
D03*
Y91098D02*
D03*
Y81098D02*
D03*
Y71098D02*
D03*
Y61098D02*
D03*
Y51098D02*
D03*
Y41098D02*
D03*
Y31098D02*
D03*
D19*
X166000Y21100D02*
D03*
X32000Y21098D02*
D03*
D20*
X181290Y181088D02*
D03*
X16290D02*
D03*
D21*
X80500Y12000D02*
D03*
X88500D02*
D03*
X96000D02*
D03*
X119500D02*
D03*
X112000D02*
D03*
X104000D02*
D03*
X103937Y165463D02*
D03*
X88189Y165811D02*
D03*
X119685D02*
D03*
X127559D02*
D03*
X96000D02*
D03*
X112000D02*
D03*
M02*
