%FSLAX25Y25*%
%MOIN*%
G70*
G01*
G75*
%ADD10C,0.03937*%
G04:AMPARAMS|DCode=11|XSize=19.69mil|YSize=31.5mil|CornerRadius=0.98mil|HoleSize=0mil|Usage=FLASHONLY|Rotation=180.000|XOffset=0mil|YOffset=0mil|HoleType=Round|Shape=RoundedRectangle|*
%AMROUNDEDRECTD11*
21,1,0.01969,0.02953,0,0,180.0*
21,1,0.01772,0.03150,0,0,180.0*
1,1,0.00197,-0.00886,0.01476*
1,1,0.00197,0.00886,0.01476*
1,1,0.00197,0.00886,-0.01476*
1,1,0.00197,-0.00886,-0.01476*
%
%ADD11ROUNDEDRECTD11*%
G04:AMPARAMS|DCode=12|XSize=35.43mil|YSize=39.37mil|CornerRadius=1.77mil|HoleSize=0mil|Usage=FLASHONLY|Rotation=270.000|XOffset=0mil|YOffset=0mil|HoleType=Round|Shape=RoundedRectangle|*
%AMROUNDEDRECTD12*
21,1,0.03543,0.03583,0,0,270.0*
21,1,0.03189,0.03937,0,0,270.0*
1,1,0.00354,-0.01791,-0.01595*
1,1,0.00354,-0.01791,0.01595*
1,1,0.00354,0.01791,0.01595*
1,1,0.00354,0.01791,-0.01595*
%
%ADD12ROUNDEDRECTD12*%
G04:AMPARAMS|DCode=13|XSize=19.69mil|YSize=23.62mil|CornerRadius=0.98mil|HoleSize=0mil|Usage=FLASHONLY|Rotation=0.000|XOffset=0mil|YOffset=0mil|HoleType=Round|Shape=RoundedRectangle|*
%AMROUNDEDRECTD13*
21,1,0.01969,0.02165,0,0,0.0*
21,1,0.01772,0.02362,0,0,0.0*
1,1,0.00197,0.00886,-0.01083*
1,1,0.00197,-0.00886,-0.01083*
1,1,0.00197,-0.00886,0.01083*
1,1,0.00197,0.00886,0.01083*
%
%ADD13ROUNDEDRECTD13*%
G04:AMPARAMS|DCode=14|XSize=47.24mil|YSize=70.87mil|CornerRadius=4.72mil|HoleSize=0mil|Usage=FLASHONLY|Rotation=270.000|XOffset=0mil|YOffset=0mil|HoleType=Round|Shape=RoundedRectangle|*
%AMROUNDEDRECTD14*
21,1,0.04724,0.06142,0,0,270.0*
21,1,0.03780,0.07087,0,0,270.0*
1,1,0.00945,-0.03071,-0.01890*
1,1,0.00945,-0.03071,0.01890*
1,1,0.00945,0.03071,0.01890*
1,1,0.00945,0.03071,-0.01890*
%
%ADD14ROUNDEDRECTD14*%
G04:AMPARAMS|DCode=15|XSize=196.85mil|YSize=78.74mil|CornerRadius=3.94mil|HoleSize=0mil|Usage=FLASHONLY|Rotation=270.000|XOffset=0mil|YOffset=0mil|HoleType=Round|Shape=RoundedRectangle|*
%AMROUNDEDRECTD15*
21,1,0.19685,0.07087,0,0,270.0*
21,1,0.18898,0.07874,0,0,270.0*
1,1,0.00787,-0.03543,-0.09449*
1,1,0.00787,-0.03543,0.09449*
1,1,0.00787,0.03543,0.09449*
1,1,0.00787,0.03543,-0.09449*
%
%ADD15ROUNDEDRECTD15*%
%ADD16C,0.01969*%
%ADD17R,0.05906X0.05906*%
%ADD18C,0.05906*%
%ADD19R,0.05906X0.05906*%
%ADD20C,0.17500*%
%ADD21C,0.05000*%
G04:AMPARAMS|DCode=22|XSize=196.85mil|YSize=39.37mil|CornerRadius=1.97mil|HoleSize=0mil|Usage=FLASHONLY|Rotation=270.000|XOffset=0mil|YOffset=0mil|HoleType=Round|Shape=RoundedRectangle|*
%AMROUNDEDRECTD22*
21,1,0.19685,0.03543,0,0,270.0*
21,1,0.19291,0.03937,0,0,270.0*
1,1,0.00394,-0.01772,-0.09646*
1,1,0.00394,-0.01772,0.09646*
1,1,0.00394,0.01772,0.09646*
1,1,0.00394,0.01772,-0.09646*
%
%ADD22ROUNDEDRECTD22*%
G04:AMPARAMS|DCode=23|XSize=118.11mil|YSize=59.06mil|CornerRadius=2.95mil|HoleSize=0mil|Usage=FLASHONLY|Rotation=270.000|XOffset=0mil|YOffset=0mil|HoleType=Round|Shape=RoundedRectangle|*
%AMROUNDEDRECTD23*
21,1,0.11811,0.05315,0,0,270.0*
21,1,0.11221,0.05906,0,0,270.0*
1,1,0.00591,-0.02658,-0.05610*
1,1,0.00591,-0.02658,0.05610*
1,1,0.00591,0.02658,0.05610*
1,1,0.00591,0.02658,-0.05610*
%
%ADD23ROUNDEDRECTD23*%
%ADD24C,0.01575*%
%ADD25C,0.00787*%
%ADD26C,0.00394*%
%ADD27C,0.00492*%
%ADD28C,0.00100*%
%ADD29C,0.01000*%
G36*
X71500Y91846D02*
X69867D01*
X69821Y91840D01*
X69762Y91833D01*
X69703Y91820D01*
X69637Y91800D01*
X69578Y91774D01*
X69532Y91741D01*
X69525Y91735D01*
X69512Y91722D01*
X69493Y91702D01*
X69473Y91669D01*
X69453Y91630D01*
X69434Y91584D01*
X69420Y91525D01*
X69414Y91459D01*
Y91453D01*
Y91426D01*
X69420Y91387D01*
X69434Y91341D01*
X69453Y91289D01*
X69480Y91236D01*
X69519Y91184D01*
X69571Y91131D01*
X69578Y91125D01*
X69598Y91111D01*
X69637Y91092D01*
X69696Y91072D01*
X69768Y91046D01*
X69867Y91026D01*
X69978Y91013D01*
X70116Y91007D01*
X71500D01*
Y89898D01*
X67505D01*
Y91007D01*
X68981D01*
X68968Y91020D01*
X68942Y91046D01*
X68902Y91092D01*
X68850Y91144D01*
X68797Y91216D01*
X68738Y91289D01*
X68686Y91367D01*
X68646Y91453D01*
X68640Y91466D01*
X68627Y91492D01*
X68614Y91538D01*
X68594Y91603D01*
X68574Y91682D01*
X68555Y91774D01*
X68548Y91873D01*
X68541Y91984D01*
Y91991D01*
Y92004D01*
Y92030D01*
X68548Y92056D01*
Y92096D01*
X68555Y92141D01*
X68574Y92246D01*
X68607Y92358D01*
X68660Y92476D01*
X68725Y92594D01*
X68817Y92699D01*
X68830Y92712D01*
X68843Y92725D01*
X68869Y92738D01*
X68896Y92758D01*
X68935Y92784D01*
X68974Y92804D01*
X69027Y92830D01*
X69079Y92857D01*
X69145Y92876D01*
X69211Y92902D01*
X69289Y92922D01*
X69375Y92935D01*
X69460Y92948D01*
X69558Y92961D01*
X71500D01*
Y91846D01*
D02*
G37*
G36*
X71572Y89222D02*
X71638Y89216D01*
X71710Y89203D01*
X71795Y89176D01*
X71887Y89150D01*
X71979Y89111D01*
X71992Y89104D01*
X72018Y89091D01*
X72064Y89065D01*
X72123Y89032D01*
X72189Y88986D01*
X72254Y88934D01*
X72320Y88875D01*
X72379Y88802D01*
X72386Y88796D01*
X72405Y88770D01*
X72431Y88724D01*
X72464Y88671D01*
X72504Y88599D01*
X72536Y88520D01*
X72576Y88422D01*
X72602Y88317D01*
Y88304D01*
X72615Y88265D01*
X72622Y88205D01*
X72635Y88120D01*
X72648Y88022D01*
X72661Y87904D01*
X72668Y87773D01*
X72674Y87635D01*
Y87628D01*
Y87595D01*
Y87549D01*
X72668Y87490D01*
Y87425D01*
X72661Y87340D01*
X72655Y87254D01*
X72641Y87156D01*
X72609Y86959D01*
X72563Y86762D01*
X72536Y86664D01*
X72497Y86579D01*
X72458Y86500D01*
X72412Y86434D01*
Y86428D01*
X72399Y86421D01*
X72366Y86382D01*
X72307Y86336D01*
X72228Y86277D01*
X72123Y86218D01*
X72005Y86165D01*
X71867Y86126D01*
X71789Y86119D01*
X71710Y86113D01*
X71566D01*
X71690Y87195D01*
X71697D01*
X71716Y87202D01*
X71736Y87215D01*
X71769Y87228D01*
X71835Y87267D01*
X71867Y87287D01*
X71894Y87320D01*
X71900Y87326D01*
X71907Y87340D01*
X71920Y87372D01*
X71933Y87405D01*
X71953Y87451D01*
X71966Y87503D01*
X71972Y87563D01*
X71979Y87628D01*
Y87641D01*
Y87668D01*
X71972Y87713D01*
X71959Y87766D01*
X71946Y87825D01*
X71926Y87884D01*
X71894Y87943D01*
X71848Y87989D01*
X71841Y87995D01*
X71821Y88009D01*
X71789Y88028D01*
X71743Y88055D01*
X71684Y88074D01*
X71611Y88094D01*
X71520Y88107D01*
X71408Y88114D01*
X70975D01*
X70982Y88107D01*
X71008Y88087D01*
X71041Y88048D01*
X71080Y88009D01*
X71126Y87956D01*
X71172Y87904D01*
X71211Y87838D01*
X71251Y87779D01*
X71257Y87766D01*
X71270Y87733D01*
X71290Y87681D01*
X71316Y87615D01*
X71343Y87530D01*
X71362Y87438D01*
X71375Y87340D01*
X71382Y87228D01*
Y87221D01*
Y87202D01*
X71375Y87169D01*
Y87130D01*
X71369Y87084D01*
X71356Y87025D01*
X71343Y86959D01*
X71316Y86893D01*
X71290Y86815D01*
X71257Y86743D01*
X71218Y86664D01*
X71165Y86585D01*
X71113Y86506D01*
X71041Y86428D01*
X70969Y86356D01*
X70877Y86283D01*
X70870D01*
X70857Y86270D01*
X70837Y86264D01*
X70811Y86244D01*
X70772Y86224D01*
X70732Y86205D01*
X70680Y86185D01*
X70621Y86159D01*
X70555Y86133D01*
X70483Y86113D01*
X70326Y86073D01*
X70135Y86047D01*
X69926Y86034D01*
X69860D01*
X69814Y86041D01*
X69755Y86047D01*
X69696Y86054D01*
X69624Y86060D01*
X69545Y86073D01*
X69375Y86113D01*
X69204Y86172D01*
X69125Y86211D01*
X69040Y86257D01*
X68968Y86303D01*
X68896Y86362D01*
X68889Y86369D01*
X68883Y86375D01*
X68863Y86395D01*
X68843Y86421D01*
X68810Y86454D01*
X68784Y86493D01*
X68719Y86592D01*
X68653Y86716D01*
X68594Y86861D01*
X68555Y87025D01*
X68548Y87116D01*
X68541Y87215D01*
Y87221D01*
Y87228D01*
Y87248D01*
Y87274D01*
X68548Y87333D01*
X68555Y87412D01*
X68568Y87503D01*
X68594Y87595D01*
X68620Y87687D01*
X68660Y87773D01*
X68666Y87786D01*
X68679Y87812D01*
X68712Y87851D01*
X68751Y87910D01*
X68804Y87976D01*
X68869Y88041D01*
X68948Y88120D01*
X69040Y88192D01*
X68607D01*
Y89229D01*
X71520D01*
X71572Y89222D01*
D02*
G37*
G36*
X71480Y95612D02*
X71487Y95599D01*
Y95579D01*
X71493Y95546D01*
X71500Y95513D01*
X71507Y95467D01*
X71520Y95369D01*
X71539Y95251D01*
X71552Y95120D01*
X71559Y94982D01*
X71566Y94844D01*
Y94838D01*
Y94824D01*
Y94805D01*
Y94779D01*
X71559Y94706D01*
X71552Y94615D01*
X71539Y94516D01*
X71520Y94411D01*
X71493Y94319D01*
X71461Y94234D01*
X71454Y94227D01*
X71441Y94201D01*
X71415Y94169D01*
X71382Y94123D01*
X71336Y94077D01*
X71284Y94031D01*
X71218Y93985D01*
X71139Y93945D01*
X71126Y93939D01*
X71100Y93932D01*
X71047Y93919D01*
X70969Y93900D01*
X70870Y93880D01*
X70752Y93867D01*
X70608Y93860D01*
X70437Y93854D01*
X69420D01*
Y93447D01*
X68607D01*
Y93854D01*
X68076D01*
X67505Y94969D01*
X68607D01*
Y95579D01*
X69420D01*
Y94969D01*
X70503D01*
X70542Y94975D01*
X70621Y94982D01*
X70660Y94989D01*
X70687Y95002D01*
X70693D01*
X70700Y95015D01*
X70732Y95047D01*
X70752Y95074D01*
X70765Y95107D01*
X70772Y95146D01*
X70778Y95192D01*
Y95198D01*
Y95218D01*
X70772Y95244D01*
Y95284D01*
X70765Y95330D01*
X70752Y95389D01*
X70732Y95454D01*
X70713Y95533D01*
X71480Y95618D01*
Y95612D01*
D02*
G37*
G36*
X69486Y100525D02*
X69480Y100519D01*
X69473Y100492D01*
X69460Y100460D01*
X69440Y100414D01*
X69414Y100315D01*
X69407Y100263D01*
X69401Y100217D01*
Y100210D01*
Y100184D01*
X69407Y100145D01*
X69420Y100092D01*
X69447Y100040D01*
X69480Y99987D01*
X69525Y99928D01*
X69585Y99882D01*
X69598Y99876D01*
X69611Y99869D01*
X69637Y99856D01*
X69663Y99843D01*
X69703Y99830D01*
X69749Y99810D01*
X69801Y99797D01*
X69860Y99784D01*
X69932Y99764D01*
X70004Y99751D01*
X70096Y99738D01*
X70188Y99725D01*
X70293Y99718D01*
X70411Y99712D01*
X71500D01*
Y98597D01*
X68607D01*
Y99633D01*
X69079D01*
X69073Y99639D01*
X69033Y99659D01*
X68981Y99692D01*
X68915Y99731D01*
X68843Y99777D01*
X68778Y99830D01*
X68712Y99882D01*
X68660Y99941D01*
X68653Y99948D01*
X68640Y99967D01*
X68620Y100007D01*
X68600Y100053D01*
X68581Y100105D01*
X68561Y100171D01*
X68548Y100250D01*
X68541Y100335D01*
Y100348D01*
Y100381D01*
X68548Y100427D01*
X68561Y100492D01*
X68581Y100571D01*
X68607Y100663D01*
X68646Y100768D01*
X68699Y100873D01*
X69486Y100525D01*
D02*
G37*
G36*
X71480Y98091D02*
X71487Y98078D01*
Y98059D01*
X71493Y98026D01*
X71500Y97993D01*
X71507Y97947D01*
X71520Y97849D01*
X71539Y97731D01*
X71552Y97599D01*
X71559Y97462D01*
X71566Y97324D01*
Y97317D01*
Y97304D01*
Y97285D01*
Y97258D01*
X71559Y97186D01*
X71552Y97094D01*
X71539Y96996D01*
X71520Y96891D01*
X71493Y96799D01*
X71461Y96714D01*
X71454Y96707D01*
X71441Y96681D01*
X71415Y96648D01*
X71382Y96602D01*
X71336Y96556D01*
X71284Y96510D01*
X71218Y96465D01*
X71139Y96425D01*
X71126Y96419D01*
X71100Y96412D01*
X71047Y96399D01*
X70969Y96379D01*
X70870Y96359D01*
X70752Y96346D01*
X70608Y96340D01*
X70437Y96333D01*
X69420D01*
Y95927D01*
X68607D01*
Y96333D01*
X68076D01*
X67505Y97448D01*
X68607D01*
Y98059D01*
X69420D01*
Y97448D01*
X70503D01*
X70542Y97455D01*
X70621Y97462D01*
X70660Y97468D01*
X70687Y97481D01*
X70693D01*
X70700Y97494D01*
X70732Y97527D01*
X70752Y97553D01*
X70765Y97586D01*
X70772Y97626D01*
X70778Y97672D01*
Y97678D01*
Y97698D01*
X70772Y97724D01*
Y97763D01*
X70765Y97809D01*
X70752Y97868D01*
X70732Y97934D01*
X70713Y98013D01*
X71480Y98098D01*
Y98091D01*
D02*
G37*
G36*
X71500Y84355D02*
X68607D01*
Y85463D01*
X71500D01*
Y84355D01*
D02*
G37*
G36*
Y78438D02*
X70385D01*
Y79625D01*
X71500D01*
Y78438D01*
D02*
G37*
G36*
Y77040D02*
Y76050D01*
X69762Y75466D01*
X71500Y74902D01*
Y73905D01*
X68616Y72839D01*
X71500Y71773D01*
Y70782D01*
X69762Y70198D01*
X71500Y69634D01*
Y68637D01*
X68616Y67571D01*
X71500Y66505D01*
Y65514D01*
X69762Y64931D01*
X71500Y64366D01*
Y63369D01*
X68607Y62300D01*
Y63369D01*
X70431Y63835D01*
X68607Y64432D01*
Y65423D01*
X70431Y66039D01*
X68607Y66505D01*
Y67568D01*
Y68637D01*
X70431Y69103D01*
X68607Y69700D01*
Y70690D01*
X70431Y71307D01*
X68607Y71773D01*
Y72835D01*
Y73905D01*
X70431Y74370D01*
X68607Y74967D01*
Y75958D01*
X70431Y76575D01*
X68607Y77040D01*
Y78110D01*
X71500Y77040D01*
D02*
G37*
G36*
X68181Y82170D02*
Y82164D01*
X68174Y82137D01*
X68168Y82098D01*
X68161Y82052D01*
X68154Y81947D01*
X68148Y81895D01*
Y81849D01*
Y81842D01*
Y81823D01*
Y81796D01*
X68154Y81763D01*
X68168Y81691D01*
X68181Y81659D01*
X68200Y81632D01*
X68207Y81619D01*
X68240Y81599D01*
X68286Y81567D01*
X68358Y81541D01*
X68371D01*
X68384Y81534D01*
X68443D01*
X68489Y81527D01*
X68607D01*
Y82059D01*
X69420D01*
Y81527D01*
X71500D01*
Y80412D01*
X69420D01*
Y79999D01*
X68607D01*
Y80412D01*
X68417D01*
X68364Y80419D01*
X68312D01*
X68246Y80425D01*
X68095Y80445D01*
X68089D01*
X68056Y80452D01*
X68017Y80465D01*
X67971Y80478D01*
X67859Y80524D01*
X67800Y80550D01*
X67748Y80589D01*
X67741Y80596D01*
X67721Y80609D01*
X67702Y80635D01*
X67669Y80668D01*
X67630Y80707D01*
X67597Y80760D01*
X67557Y80819D01*
X67525Y80884D01*
X67518Y80891D01*
X67511Y80917D01*
X67498Y80963D01*
X67479Y81029D01*
X67466Y81107D01*
X67453Y81199D01*
X67446Y81311D01*
X67439Y81442D01*
Y81449D01*
Y81455D01*
Y81475D01*
Y81495D01*
Y81527D01*
X67446Y81567D01*
Y81606D01*
Y81659D01*
X67459Y81783D01*
X67472Y81928D01*
X67485Y82098D01*
X67511Y82295D01*
X68181Y82170D01*
D02*
G37*
G36*
X68259Y84355D02*
X67505D01*
Y85463D01*
X68259D01*
Y84355D01*
D02*
G37*
G36*
X71500Y82498D02*
X67505D01*
Y83613D01*
X71500D01*
Y82498D01*
D02*
G37*
G36*
X70654Y116978D02*
X70719Y116964D01*
X70792Y116945D01*
X70877Y116919D01*
X70962Y116879D01*
X71054Y116827D01*
X71067Y116820D01*
X71093Y116800D01*
X71133Y116761D01*
X71192Y116709D01*
X71251Y116643D01*
X71310Y116564D01*
X71369Y116466D01*
X71428Y116348D01*
Y116341D01*
X71434Y116335D01*
X71441Y116315D01*
X71447Y116289D01*
X71461Y116256D01*
X71474Y116217D01*
X71487Y116171D01*
X71493Y116118D01*
X71507Y116059D01*
X71520Y115994D01*
X71546Y115836D01*
X71559Y115666D01*
X71566Y115462D01*
Y115456D01*
Y115429D01*
Y115390D01*
X71559Y115331D01*
Y115265D01*
X71552Y115193D01*
X71546Y115108D01*
X71539Y115023D01*
X71513Y114839D01*
X71474Y114649D01*
X71447Y114557D01*
X71415Y114472D01*
X71382Y114400D01*
X71343Y114327D01*
Y114321D01*
X71329Y114314D01*
X71303Y114275D01*
X71251Y114216D01*
X71179Y114150D01*
X71087Y114078D01*
X70975Y114006D01*
X70851Y113947D01*
X70700Y113901D01*
X70595Y115003D01*
X70601D01*
X70627Y115016D01*
X70660Y115029D01*
X70706Y115049D01*
X70798Y115108D01*
X70837Y115147D01*
X70877Y115193D01*
Y115200D01*
X70890Y115213D01*
X70903Y115246D01*
X70916Y115279D01*
X70929Y115331D01*
X70942Y115384D01*
X70949Y115449D01*
X70955Y115521D01*
Y115534D01*
Y115561D01*
X70949Y115600D01*
X70942Y115646D01*
X70916Y115764D01*
X70897Y115816D01*
X70864Y115869D01*
X70857Y115875D01*
X70851Y115882D01*
X70811Y115921D01*
X70759Y115954D01*
X70726Y115961D01*
X70687Y115967D01*
X70667D01*
X70647Y115961D01*
X70621Y115954D01*
X70588Y115935D01*
X70562Y115915D01*
X70529Y115882D01*
X70503Y115836D01*
Y115830D01*
X70496Y115816D01*
X70483Y115784D01*
X70470Y115744D01*
X70450Y115679D01*
X70431Y115593D01*
X70411Y115489D01*
X70398Y115429D01*
X70385Y115357D01*
Y115351D01*
X70378Y115331D01*
X70372Y115305D01*
X70365Y115265D01*
X70359Y115219D01*
X70352Y115161D01*
X70326Y115042D01*
X70300Y114911D01*
X70267Y114773D01*
X70234Y114655D01*
X70214Y114603D01*
X70201Y114557D01*
X70195Y114550D01*
X70181Y114518D01*
X70162Y114478D01*
X70135Y114426D01*
X70096Y114367D01*
X70044Y114301D01*
X69985Y114235D01*
X69912Y114176D01*
X69906Y114170D01*
X69873Y114150D01*
X69834Y114131D01*
X69775Y114104D01*
X69709Y114072D01*
X69630Y114052D01*
X69545Y114032D01*
X69447Y114026D01*
X69401D01*
X69348Y114032D01*
X69283Y114045D01*
X69204Y114065D01*
X69125Y114098D01*
X69040Y114137D01*
X68961Y114190D01*
X68955Y114196D01*
X68928Y114222D01*
X68889Y114255D01*
X68843Y114308D01*
X68791Y114373D01*
X68738Y114452D01*
X68692Y114537D01*
X68646Y114642D01*
Y114649D01*
X68640Y114655D01*
X68633Y114675D01*
X68627Y114695D01*
X68614Y114760D01*
X68594Y114852D01*
X68574Y114964D01*
X68555Y115101D01*
X68548Y115252D01*
X68541Y115429D01*
Y115436D01*
Y115456D01*
Y115482D01*
Y115515D01*
Y115561D01*
X68548Y115607D01*
X68555Y115718D01*
X68561Y115843D01*
X68574Y115974D01*
X68600Y116092D01*
X68627Y116197D01*
X68633Y116210D01*
X68640Y116236D01*
X68660Y116282D01*
X68686Y116341D01*
X68719Y116407D01*
X68765Y116479D01*
X68810Y116545D01*
X68869Y116610D01*
X68876Y116617D01*
X68902Y116637D01*
X68935Y116669D01*
X68988Y116709D01*
X69053Y116748D01*
X69125Y116794D01*
X69217Y116840D01*
X69315Y116886D01*
X69420Y115836D01*
X69414D01*
X69401Y115830D01*
X69375Y115816D01*
X69342Y115803D01*
X69276Y115757D01*
X69243Y115731D01*
X69217Y115698D01*
X69211Y115692D01*
X69204Y115672D01*
X69191Y115646D01*
X69171Y115607D01*
X69152Y115561D01*
X69138Y115508D01*
X69132Y115443D01*
X69125Y115377D01*
Y115370D01*
Y115344D01*
X69132Y115311D01*
Y115272D01*
X69158Y115180D01*
X69171Y115141D01*
X69197Y115101D01*
Y115095D01*
X69211Y115088D01*
X69243Y115062D01*
X69289Y115029D01*
X69322Y115023D01*
X69355Y115016D01*
X69375D01*
X69414Y115029D01*
X69440Y115042D01*
X69466Y115062D01*
X69493Y115088D01*
X69519Y115121D01*
Y115128D01*
X69525Y115147D01*
X69539Y115174D01*
X69552Y115226D01*
X69565Y115285D01*
X69585Y115370D01*
X69598Y115475D01*
X69617Y115600D01*
Y115607D01*
Y115626D01*
X69624Y115653D01*
X69630Y115692D01*
X69637Y115738D01*
X69643Y115790D01*
X69663Y115908D01*
X69683Y116040D01*
X69716Y116177D01*
X69749Y116308D01*
X69768Y116367D01*
X69788Y116420D01*
X69794Y116433D01*
X69807Y116466D01*
X69834Y116512D01*
X69867Y116577D01*
X69912Y116643D01*
X69972Y116715D01*
X70037Y116781D01*
X70109Y116840D01*
X70116Y116846D01*
X70142Y116859D01*
X70188Y116886D01*
X70240Y116912D01*
X70306Y116938D01*
X70385Y116964D01*
X70470Y116978D01*
X70562Y116984D01*
X70601D01*
X70654Y116978D01*
D02*
G37*
G36*
X70496Y113579D02*
X70516D01*
X70542Y113566D01*
X70601Y113547D01*
X70680Y113514D01*
X70772Y113475D01*
X70870Y113429D01*
X70969Y113370D01*
X71061Y113297D01*
X71074Y113291D01*
X71100Y113265D01*
X71146Y113219D01*
X71198Y113160D01*
X71257Y113087D01*
X71323Y112996D01*
X71382Y112897D01*
X71434Y112786D01*
Y112779D01*
X71441Y112773D01*
X71447Y112753D01*
X71454Y112733D01*
X71474Y112661D01*
X71500Y112576D01*
X71526Y112458D01*
X71546Y112327D01*
X71559Y112176D01*
X71566Y112005D01*
Y111999D01*
Y111985D01*
Y111959D01*
Y111926D01*
Y111887D01*
X71559Y111841D01*
X71552Y111736D01*
X71546Y111611D01*
X71526Y111480D01*
X71507Y111356D01*
X71480Y111231D01*
X71474Y111218D01*
X71461Y111179D01*
X71441Y111126D01*
X71415Y111054D01*
X71375Y110969D01*
X71329Y110883D01*
X71270Y110792D01*
X71205Y110706D01*
X71198Y110700D01*
X71172Y110673D01*
X71133Y110634D01*
X71080Y110582D01*
X71015Y110529D01*
X70936Y110470D01*
X70851Y110418D01*
X70759Y110365D01*
X70746Y110359D01*
X70713Y110345D01*
X70654Y110326D01*
X70575Y110306D01*
X70477Y110280D01*
X70359Y110260D01*
X70221Y110247D01*
X70070Y110240D01*
X69998D01*
X69958Y110247D01*
X69912D01*
X69807Y110260D01*
X69689Y110280D01*
X69571Y110306D01*
X69447Y110339D01*
X69329Y110391D01*
X69315Y110398D01*
X69289Y110411D01*
X69250Y110437D01*
X69197Y110470D01*
X69132Y110516D01*
X69066Y110568D01*
X69001Y110627D01*
X68935Y110693D01*
X68928Y110700D01*
X68909Y110726D01*
X68876Y110765D01*
X68837Y110818D01*
X68797Y110877D01*
X68758Y110942D01*
X68712Y111021D01*
X68679Y111093D01*
Y111100D01*
X68673Y111106D01*
X68666Y111126D01*
X68660Y111152D01*
X68646Y111185D01*
X68633Y111224D01*
X68607Y111316D01*
X68587Y111434D01*
X68561Y111579D01*
X68548Y111743D01*
X68541Y111920D01*
Y111926D01*
Y111953D01*
Y111985D01*
X68548Y112038D01*
Y112097D01*
X68555Y112163D01*
X68561Y112241D01*
X68574Y112320D01*
X68600Y112497D01*
X68646Y112674D01*
X68712Y112851D01*
X68751Y112930D01*
X68797Y113002D01*
Y113009D01*
X68810Y113022D01*
X68823Y113035D01*
X68843Y113061D01*
X68902Y113127D01*
X68988Y113206D01*
X69093Y113297D01*
X69217Y113383D01*
X69368Y113461D01*
X69539Y113527D01*
X69676Y112484D01*
X69670D01*
X69643Y112471D01*
X69611Y112458D01*
X69571Y112445D01*
X69525Y112418D01*
X69480Y112386D01*
X69440Y112346D01*
X69401Y112300D01*
X69394Y112294D01*
X69388Y112281D01*
X69368Y112248D01*
X69348Y112208D01*
X69335Y112163D01*
X69315Y112103D01*
X69309Y112031D01*
X69302Y111953D01*
Y111940D01*
Y111907D01*
X69315Y111854D01*
X69329Y111795D01*
X69348Y111723D01*
X69388Y111651D01*
X69434Y111572D01*
X69499Y111507D01*
X69506Y111500D01*
X69539Y111480D01*
X69585Y111454D01*
X69650Y111428D01*
X69729Y111395D01*
X69834Y111369D01*
X69958Y111349D01*
X70096Y111343D01*
X70155D01*
X70221Y111349D01*
X70293Y111362D01*
X70385Y111382D01*
X70470Y111415D01*
X70555Y111454D01*
X70634Y111507D01*
X70641Y111513D01*
X70660Y111539D01*
X70693Y111572D01*
X70726Y111625D01*
X70759Y111690D01*
X70792Y111762D01*
X70811Y111848D01*
X70818Y111940D01*
Y111946D01*
Y111979D01*
X70811Y112018D01*
X70805Y112064D01*
X70792Y112123D01*
X70772Y112182D01*
X70746Y112241D01*
X70713Y112300D01*
X70706Y112307D01*
X70693Y112327D01*
X70667Y112353D01*
X70627Y112386D01*
X70582Y112425D01*
X70516Y112464D01*
X70450Y112497D01*
X70365Y112530D01*
X70483Y113586D01*
X70490D01*
X70496Y113579D01*
D02*
G37*
G36*
X71500Y117516D02*
X70385D01*
Y118703D01*
X71500D01*
Y117516D01*
D02*
G37*
G36*
X70332Y123767D02*
X70345D01*
X70378Y123774D01*
X70424Y123780D01*
X70483Y123793D01*
X70549Y123813D01*
X70614Y123839D01*
X70680Y123866D01*
X70732Y123905D01*
X70739Y123911D01*
X70759Y123938D01*
X70792Y123971D01*
X70824Y124016D01*
X70857Y124082D01*
X70890Y124154D01*
X70910Y124233D01*
X70916Y124325D01*
Y124331D01*
Y124351D01*
X70910Y124384D01*
X70903Y124423D01*
X70897Y124469D01*
X70883Y124522D01*
X70864Y124581D01*
X70837Y124633D01*
Y124640D01*
X70824Y124646D01*
X70811Y124666D01*
X70792Y124692D01*
X70772Y124725D01*
X70739Y124758D01*
X70700Y124791D01*
X70654Y124830D01*
X70752Y125925D01*
X70759D01*
X70772Y125912D01*
X70792Y125899D01*
X70824Y125880D01*
X70903Y125827D01*
X70995Y125755D01*
X71100Y125663D01*
X71205Y125558D01*
X71303Y125447D01*
X71382Y125315D01*
Y125309D01*
X71389Y125302D01*
X71402Y125276D01*
X71408Y125250D01*
X71421Y125210D01*
X71441Y125171D01*
X71454Y125119D01*
X71474Y125059D01*
X71493Y124987D01*
X71507Y124915D01*
X71520Y124830D01*
X71539Y124738D01*
X71546Y124640D01*
X71559Y124535D01*
X71566Y124423D01*
Y124305D01*
Y124299D01*
Y124279D01*
Y124253D01*
Y124213D01*
X71559Y124161D01*
Y124108D01*
X71546Y123977D01*
X71526Y123833D01*
X71500Y123682D01*
X71461Y123531D01*
X71408Y123400D01*
Y123393D01*
X71402Y123387D01*
X71375Y123347D01*
X71336Y123282D01*
X71284Y123210D01*
X71211Y123124D01*
X71126Y123032D01*
X71021Y122941D01*
X70897Y122855D01*
X70890D01*
X70883Y122849D01*
X70864Y122836D01*
X70831Y122823D01*
X70798Y122803D01*
X70759Y122790D01*
X70660Y122750D01*
X70536Y122705D01*
X70398Y122672D01*
X70234Y122645D01*
X70063Y122639D01*
X69998D01*
X69952Y122645D01*
X69893Y122652D01*
X69827Y122665D01*
X69749Y122678D01*
X69670Y122691D01*
X69493Y122744D01*
X69401Y122777D01*
X69309Y122823D01*
X69217Y122869D01*
X69132Y122927D01*
X69040Y122993D01*
X68961Y123072D01*
X68955Y123078D01*
X68942Y123091D01*
X68922Y123118D01*
X68896Y123151D01*
X68863Y123196D01*
X68830Y123249D01*
X68791Y123315D01*
X68751Y123387D01*
X68712Y123465D01*
X68673Y123557D01*
X68640Y123656D01*
X68607Y123761D01*
X68581Y123879D01*
X68561Y124003D01*
X68548Y124135D01*
X68541Y124272D01*
Y124279D01*
Y124299D01*
Y124331D01*
Y124377D01*
X68548Y124430D01*
Y124489D01*
X68555Y124554D01*
X68568Y124627D01*
X68587Y124784D01*
X68620Y124948D01*
X68666Y125105D01*
X68732Y125250D01*
Y125256D01*
X68738Y125263D01*
X68751Y125283D01*
X68765Y125309D01*
X68810Y125374D01*
X68869Y125453D01*
X68948Y125545D01*
X69047Y125637D01*
X69158Y125722D01*
X69283Y125801D01*
X69289D01*
X69296Y125807D01*
X69322Y125821D01*
X69348Y125834D01*
X69381Y125847D01*
X69427Y125860D01*
X69473Y125880D01*
X69532Y125899D01*
X69591Y125912D01*
X69663Y125932D01*
X69821Y125965D01*
X70004Y125985D01*
X70208Y125991D01*
X70332D01*
Y123767D01*
D02*
G37*
G36*
X70654Y122245D02*
X70719Y122232D01*
X70792Y122213D01*
X70877Y122186D01*
X70962Y122147D01*
X71054Y122094D01*
X71067Y122088D01*
X71093Y122068D01*
X71133Y122029D01*
X71192Y121976D01*
X71251Y121911D01*
X71310Y121832D01*
X71369Y121734D01*
X71428Y121616D01*
Y121609D01*
X71434Y121602D01*
X71441Y121583D01*
X71447Y121556D01*
X71461Y121524D01*
X71474Y121484D01*
X71487Y121438D01*
X71493Y121386D01*
X71507Y121327D01*
X71520Y121261D01*
X71546Y121104D01*
X71559Y120933D01*
X71566Y120730D01*
Y120723D01*
Y120697D01*
Y120658D01*
X71559Y120599D01*
Y120533D01*
X71552Y120461D01*
X71546Y120376D01*
X71539Y120290D01*
X71513Y120107D01*
X71474Y119916D01*
X71447Y119825D01*
X71415Y119739D01*
X71382Y119667D01*
X71343Y119595D01*
Y119588D01*
X71329Y119582D01*
X71303Y119543D01*
X71251Y119483D01*
X71179Y119418D01*
X71087Y119346D01*
X70975Y119274D01*
X70851Y119215D01*
X70700Y119169D01*
X70595Y120271D01*
X70601D01*
X70627Y120284D01*
X70660Y120297D01*
X70706Y120317D01*
X70798Y120376D01*
X70837Y120415D01*
X70877Y120461D01*
Y120467D01*
X70890Y120481D01*
X70903Y120513D01*
X70916Y120546D01*
X70929Y120599D01*
X70942Y120651D01*
X70949Y120717D01*
X70955Y120789D01*
Y120802D01*
Y120828D01*
X70949Y120868D01*
X70942Y120914D01*
X70916Y121032D01*
X70897Y121084D01*
X70864Y121137D01*
X70857Y121143D01*
X70851Y121150D01*
X70811Y121189D01*
X70759Y121222D01*
X70726Y121229D01*
X70687Y121235D01*
X70667D01*
X70647Y121229D01*
X70621Y121222D01*
X70588Y121202D01*
X70562Y121183D01*
X70529Y121150D01*
X70503Y121104D01*
Y121097D01*
X70496Y121084D01*
X70483Y121051D01*
X70470Y121012D01*
X70450Y120946D01*
X70431Y120861D01*
X70411Y120756D01*
X70398Y120697D01*
X70385Y120625D01*
Y120618D01*
X70378Y120599D01*
X70372Y120572D01*
X70365Y120533D01*
X70359Y120487D01*
X70352Y120428D01*
X70326Y120310D01*
X70300Y120179D01*
X70267Y120041D01*
X70234Y119923D01*
X70214Y119871D01*
X70201Y119825D01*
X70195Y119818D01*
X70181Y119785D01*
X70162Y119746D01*
X70135Y119693D01*
X70096Y119634D01*
X70044Y119569D01*
X69985Y119503D01*
X69912Y119444D01*
X69906Y119438D01*
X69873Y119418D01*
X69834Y119398D01*
X69775Y119372D01*
X69709Y119339D01*
X69630Y119319D01*
X69545Y119300D01*
X69447Y119293D01*
X69401D01*
X69348Y119300D01*
X69283Y119313D01*
X69204Y119333D01*
X69125Y119365D01*
X69040Y119405D01*
X68961Y119457D01*
X68955Y119464D01*
X68928Y119490D01*
X68889Y119523D01*
X68843Y119575D01*
X68791Y119641D01*
X68738Y119720D01*
X68692Y119805D01*
X68646Y119910D01*
Y119916D01*
X68640Y119923D01*
X68633Y119943D01*
X68627Y119962D01*
X68614Y120028D01*
X68594Y120120D01*
X68574Y120231D01*
X68555Y120369D01*
X68548Y120520D01*
X68541Y120697D01*
Y120704D01*
Y120723D01*
Y120750D01*
Y120782D01*
Y120828D01*
X68548Y120874D01*
X68555Y120986D01*
X68561Y121110D01*
X68574Y121242D01*
X68600Y121360D01*
X68627Y121465D01*
X68633Y121478D01*
X68640Y121504D01*
X68660Y121550D01*
X68686Y121609D01*
X68719Y121675D01*
X68765Y121747D01*
X68810Y121812D01*
X68869Y121878D01*
X68876Y121885D01*
X68902Y121904D01*
X68935Y121937D01*
X68988Y121976D01*
X69053Y122016D01*
X69125Y122062D01*
X69217Y122108D01*
X69315Y122153D01*
X69420Y121104D01*
X69414D01*
X69401Y121097D01*
X69375Y121084D01*
X69342Y121071D01*
X69276Y121025D01*
X69243Y120999D01*
X69217Y120966D01*
X69211Y120959D01*
X69204Y120940D01*
X69191Y120914D01*
X69171Y120874D01*
X69152Y120828D01*
X69138Y120776D01*
X69132Y120710D01*
X69125Y120645D01*
Y120638D01*
Y120612D01*
X69132Y120579D01*
Y120540D01*
X69158Y120448D01*
X69171Y120408D01*
X69197Y120369D01*
Y120363D01*
X69211Y120356D01*
X69243Y120330D01*
X69289Y120297D01*
X69322Y120290D01*
X69355Y120284D01*
X69375D01*
X69414Y120297D01*
X69440Y120310D01*
X69466Y120330D01*
X69493Y120356D01*
X69519Y120389D01*
Y120395D01*
X69525Y120415D01*
X69539Y120441D01*
X69552Y120494D01*
X69565Y120553D01*
X69585Y120638D01*
X69598Y120743D01*
X69617Y120868D01*
Y120874D01*
Y120894D01*
X69624Y120920D01*
X69630Y120959D01*
X69637Y121005D01*
X69643Y121058D01*
X69663Y121176D01*
X69683Y121307D01*
X69716Y121445D01*
X69749Y121576D01*
X69768Y121635D01*
X69788Y121688D01*
X69794Y121701D01*
X69807Y121734D01*
X69834Y121780D01*
X69867Y121845D01*
X69912Y121911D01*
X69972Y121983D01*
X70037Y122048D01*
X70109Y122108D01*
X70116Y122114D01*
X70142Y122127D01*
X70188Y122153D01*
X70240Y122180D01*
X70306Y122206D01*
X70385Y122232D01*
X70470Y122245D01*
X70562Y122252D01*
X70601D01*
X70654Y122245D01*
D02*
G37*
G36*
X71500Y108555D02*
X68607D01*
Y109663D01*
X71500D01*
Y108555D01*
D02*
G37*
G36*
Y106737D02*
X69867D01*
X69821Y106731D01*
X69762Y106724D01*
X69703Y106711D01*
X69637Y106692D01*
X69578Y106665D01*
X69532Y106632D01*
X69525Y106626D01*
X69512Y106613D01*
X69493Y106593D01*
X69473Y106560D01*
X69453Y106521D01*
X69434Y106475D01*
X69420Y106416D01*
X69414Y106350D01*
Y106344D01*
Y106318D01*
X69420Y106278D01*
X69434Y106232D01*
X69453Y106180D01*
X69480Y106127D01*
X69519Y106075D01*
X69571Y106022D01*
X69578Y106016D01*
X69598Y106003D01*
X69637Y105983D01*
X69696Y105963D01*
X69768Y105937D01*
X69867Y105917D01*
X69978Y105904D01*
X70116Y105898D01*
X71500D01*
Y104789D01*
X68607D01*
Y105819D01*
X69079D01*
X69073Y105832D01*
X69040Y105858D01*
X68988Y105904D01*
X68922Y105963D01*
X68856Y106035D01*
X68784Y106114D01*
X68719Y106200D01*
X68666Y106285D01*
X68660Y106298D01*
X68646Y106331D01*
X68627Y106377D01*
X68600Y106449D01*
X68581Y106534D01*
X68561Y106632D01*
X68548Y106744D01*
X68541Y106869D01*
Y106875D01*
Y106888D01*
Y106915D01*
X68548Y106947D01*
Y106980D01*
X68555Y107026D01*
X68574Y107131D01*
X68607Y107249D01*
X68660Y107367D01*
X68725Y107485D01*
X68817Y107590D01*
X68830Y107603D01*
X68843Y107616D01*
X68869Y107630D01*
X68896Y107649D01*
X68935Y107676D01*
X68974Y107695D01*
X69027Y107721D01*
X69079Y107748D01*
X69145Y107767D01*
X69211Y107794D01*
X69289Y107813D01*
X69375Y107826D01*
X69460Y107840D01*
X69558Y107853D01*
X71500D01*
Y106737D01*
D02*
G37*
G36*
X70162Y104251D02*
X70214Y104245D01*
X70280Y104232D01*
X70352Y104218D01*
X70437Y104205D01*
X70608Y104146D01*
X70700Y104113D01*
X70792Y104068D01*
X70883Y104022D01*
X70969Y103956D01*
X71054Y103890D01*
X71139Y103812D01*
X71146Y103805D01*
X71159Y103792D01*
X71179Y103766D01*
X71205Y103733D01*
X71238Y103687D01*
X71277Y103628D01*
X71310Y103562D01*
X71349Y103490D01*
X71395Y103411D01*
X71428Y103313D01*
X71467Y103215D01*
X71500Y103103D01*
X71526Y102985D01*
X71546Y102860D01*
X71559Y102729D01*
X71566Y102585D01*
Y102578D01*
Y102552D01*
Y102519D01*
X71559Y102467D01*
X71552Y102408D01*
X71546Y102342D01*
X71539Y102263D01*
X71520Y102178D01*
X71480Y102001D01*
X71421Y101811D01*
X71382Y101719D01*
X71329Y101621D01*
X71277Y101535D01*
X71218Y101450D01*
X71211Y101444D01*
X71198Y101430D01*
X71172Y101404D01*
X71139Y101371D01*
X71093Y101325D01*
X71041Y101286D01*
X70982Y101234D01*
X70910Y101188D01*
X70831Y101142D01*
X70746Y101089D01*
X70647Y101050D01*
X70542Y101011D01*
X70437Y100971D01*
X70319Y100945D01*
X70195Y100932D01*
X70063Y100925D01*
X69998D01*
X69952Y100932D01*
X69899Y100938D01*
X69834Y100952D01*
X69755Y100965D01*
X69676Y100984D01*
X69506Y101037D01*
X69414Y101070D01*
X69322Y101116D01*
X69230Y101168D01*
X69145Y101227D01*
X69060Y101293D01*
X68974Y101371D01*
X68968Y101378D01*
X68955Y101391D01*
X68935Y101417D01*
X68909Y101450D01*
X68876Y101496D01*
X68837Y101555D01*
X68797Y101614D01*
X68758Y101693D01*
X68719Y101771D01*
X68679Y101863D01*
X68640Y101962D01*
X68607Y102067D01*
X68581Y102185D01*
X68561Y102309D01*
X68548Y102441D01*
X68541Y102578D01*
Y102592D01*
Y102618D01*
Y102664D01*
X68548Y102723D01*
X68555Y102795D01*
X68568Y102880D01*
X68581Y102972D01*
X68607Y103070D01*
X68633Y103175D01*
X68666Y103287D01*
X68705Y103392D01*
X68751Y103503D01*
X68810Y103608D01*
X68883Y103713D01*
X68955Y103812D01*
X69047Y103897D01*
X69053Y103903D01*
X69066Y103910D01*
X69086Y103930D01*
X69119Y103956D01*
X69158Y103982D01*
X69204Y104008D01*
X69263Y104041D01*
X69322Y104081D01*
X69394Y104113D01*
X69473Y104146D01*
X69643Y104199D01*
X69834Y104245D01*
X69939Y104251D01*
X70050Y104258D01*
X70116D01*
X70162Y104251D01*
D02*
G37*
G36*
X68259Y108555D02*
X67505D01*
Y109663D01*
X68259D01*
Y108555D01*
D02*
G37*
%LPC*%
G36*
X69801Y124863D02*
X69788D01*
X69749Y124856D01*
X69689Y124843D01*
X69624Y124830D01*
X69545Y124804D01*
X69473Y124777D01*
X69401Y124738D01*
X69342Y124686D01*
X69335Y124679D01*
X69322Y124659D01*
X69296Y124633D01*
X69270Y124587D01*
X69243Y124535D01*
X69217Y124476D01*
X69204Y124397D01*
X69197Y124318D01*
Y124305D01*
Y124272D01*
X69211Y124226D01*
X69224Y124167D01*
X69250Y124102D01*
X69289Y124030D01*
X69342Y123957D01*
X69414Y123892D01*
X69420Y123885D01*
X69440Y123879D01*
X69466Y123859D01*
X69512Y123839D01*
X69565Y123820D01*
X69630Y123800D01*
X69709Y123780D01*
X69801Y123767D01*
Y124863D01*
D02*
G37*
G36*
X70004Y88120D02*
X69952D01*
X69893Y88114D01*
X69827Y88100D01*
X69749Y88081D01*
X69663Y88055D01*
X69591Y88022D01*
X69519Y87969D01*
X69512Y87963D01*
X69493Y87943D01*
X69466Y87910D01*
X69434Y87871D01*
X69401Y87818D01*
X69375Y87759D01*
X69355Y87687D01*
X69348Y87608D01*
Y87602D01*
Y87576D01*
X69355Y87536D01*
X69368Y87484D01*
X69388Y87431D01*
X69414Y87372D01*
X69453Y87320D01*
X69506Y87267D01*
X69512Y87261D01*
X69539Y87248D01*
X69571Y87228D01*
X69630Y87208D01*
X69703Y87182D01*
X69788Y87162D01*
X69893Y87149D01*
X70017Y87143D01*
X70070D01*
X70122Y87149D01*
X70195Y87162D01*
X70267Y87176D01*
X70345Y87195D01*
X70418Y87228D01*
X70483Y87274D01*
X70490Y87280D01*
X70509Y87300D01*
X70529Y87326D01*
X70555Y87366D01*
X70588Y87418D01*
X70608Y87477D01*
X70627Y87549D01*
X70634Y87628D01*
Y87635D01*
Y87661D01*
X70627Y87700D01*
X70614Y87753D01*
X70595Y87805D01*
X70569Y87864D01*
X70536Y87923D01*
X70483Y87976D01*
X70477Y87982D01*
X70450Y87995D01*
X70418Y88022D01*
X70365Y88048D01*
X70300Y88074D01*
X70214Y88100D01*
X70116Y88114D01*
X70004Y88120D01*
D02*
G37*
G36*
X70050Y103143D02*
X69991D01*
X69919Y103136D01*
X69840Y103123D01*
X69749Y103103D01*
X69657Y103077D01*
X69571Y103038D01*
X69493Y102985D01*
X69486Y102979D01*
X69460Y102959D01*
X69434Y102926D01*
X69394Y102880D01*
X69361Y102821D01*
X69329Y102755D01*
X69309Y102683D01*
X69302Y102598D01*
Y102585D01*
Y102559D01*
X69309Y102513D01*
X69329Y102460D01*
X69348Y102395D01*
X69381Y102329D01*
X69427Y102263D01*
X69493Y102198D01*
X69499Y102191D01*
X69525Y102172D01*
X69571Y102145D01*
X69637Y102119D01*
X69716Y102093D01*
X69814Y102067D01*
X69932Y102047D01*
X70063Y102041D01*
X70129D01*
X70195Y102047D01*
X70280Y102060D01*
X70372Y102080D01*
X70470Y102106D01*
X70555Y102139D01*
X70634Y102191D01*
X70641Y102198D01*
X70660Y102218D01*
X70693Y102257D01*
X70726Y102303D01*
X70759Y102355D01*
X70792Y102427D01*
X70811Y102506D01*
X70818Y102592D01*
Y102605D01*
Y102631D01*
X70811Y102677D01*
X70798Y102729D01*
X70772Y102795D01*
X70746Y102860D01*
X70700Y102926D01*
X70641Y102985D01*
X70634Y102992D01*
X70608Y103011D01*
X70562Y103038D01*
X70496Y103064D01*
X70418Y103090D01*
X70313Y103116D01*
X70195Y103136D01*
X70050Y103143D01*
D02*
G37*
%LPD*%
D25*
X191790Y181088D02*
G03*
X191790Y181088I-10500J0D01*
G01*
X26790D02*
G03*
X26790Y181088I-10500J0D01*
G01*
X95000Y183000D02*
Y193000D01*
X75000Y183000D02*
X95000D01*
X75000D02*
Y193000D01*
X95000D01*
X161000Y166100D02*
X171000D01*
X161000Y16100D02*
X171000D01*
X161000D02*
Y23600D01*
Y166100D01*
X171000Y16100D02*
Y166100D01*
X37000Y16098D02*
Y166098D01*
X27000Y23598D02*
Y166098D01*
Y16098D02*
Y23598D01*
Y16098D02*
X37000D01*
X27000Y166098D02*
X37000D01*
D26*
X77539Y166900D02*
Y181200D01*
X82461D01*
Y166900D02*
Y181200D01*
X77539Y166900D02*
X82461D01*
D27*
X77146Y165709D02*
X82900D01*
X77146Y154291D02*
Y165709D01*
Y154291D02*
X82900D01*
Y165709D01*
X40555Y43067D02*
X47445D01*
X40555Y39130D02*
Y43067D01*
Y39130D02*
X47445D01*
Y43067D01*
X40555Y33067D02*
X47445D01*
X40555Y29130D02*
Y33067D01*
Y29130D02*
X47445D01*
Y33067D01*
X40955Y23067D02*
X47845D01*
X40955Y19130D02*
Y23067D01*
Y19130D02*
X47845D01*
Y23067D01*
X151555Y59130D02*
X158445D01*
Y63067D01*
X151555D02*
X158445D01*
X151555Y59130D02*
Y63067D01*
Y49130D02*
X158445D01*
Y53067D01*
X151555D02*
X158445D01*
X151555Y49130D02*
Y53067D01*
Y39130D02*
X158445D01*
Y43067D01*
X151555D02*
X158445D01*
X151555Y39130D02*
Y43067D01*
Y159130D02*
X158445D01*
Y163067D01*
X151555D02*
X158445D01*
X151555Y159130D02*
Y163067D01*
Y149130D02*
X158445D01*
Y153067D01*
X151555D02*
X158445D01*
X151555Y149130D02*
Y153067D01*
Y139130D02*
X158445D01*
Y143067D01*
X151555D02*
X158445D01*
X151555Y139130D02*
Y143067D01*
Y129130D02*
X158445D01*
Y133067D01*
X151555D02*
X158445D01*
X151555Y129130D02*
Y133067D01*
Y119130D02*
X158445D01*
Y123067D01*
X151555D02*
X158445D01*
X151555Y119130D02*
Y123067D01*
X121354Y148291D02*
Y159709D01*
X115646Y148291D02*
X121354D01*
X115646D02*
Y159709D01*
X121354D01*
X103224Y142445D02*
Y160555D01*
X93776Y142445D02*
X103224D01*
X93776Y160555D02*
X103224D01*
X93776Y142445D02*
Y160555D01*
X114224Y142445D02*
Y160555D01*
X104776Y142445D02*
X114224D01*
X104776Y160555D02*
X114224D01*
X104776Y142445D02*
Y160555D01*
X92554Y148091D02*
Y159509D01*
X86846Y148091D02*
X92554D01*
X86846D02*
Y159509D01*
X92554D01*
X99500Y183500D02*
X97532D01*
Y184484D01*
X97860Y184812D01*
X98516D01*
X98844Y184484D01*
Y183500D01*
X97532Y186452D02*
Y185796D01*
X97860Y185468D01*
X99172D01*
X99500Y185796D01*
Y186452D01*
X99172Y186780D01*
X97860D01*
X97532Y186452D01*
Y187436D02*
X99500D01*
X98844Y188092D01*
X99500Y188748D01*
X97532D01*
Y190716D02*
Y189404D01*
X99500D01*
Y190716D01*
X98516Y189404D02*
Y190059D01*
X99500Y191371D02*
X97532D01*
Y192355D01*
X97860Y192683D01*
X98516D01*
X98844Y192355D01*
Y191371D01*
Y192027D02*
X99500Y192683D01*
X74032Y172500D02*
X76000D01*
Y173484D01*
X75672Y173812D01*
X74360D01*
X74032Y173484D01*
Y172500D01*
X76000Y174468D02*
Y175124D01*
Y174796D01*
X74032D01*
X74360Y174468D01*
X73532Y159000D02*
X75500D01*
Y160312D01*
Y160968D02*
Y161624D01*
Y161296D01*
X73532D01*
X73860Y160968D01*
X41000Y45000D02*
Y46968D01*
X41984D01*
X42312Y46640D01*
Y45984D01*
X41984Y45656D01*
X41000D01*
X41656D02*
X42312Y45000D01*
X43952D02*
Y46968D01*
X42968Y45984D01*
X44280D01*
X41000Y34500D02*
Y36468D01*
X41984D01*
X42312Y36140D01*
Y35484D01*
X41984Y35156D01*
X41000D01*
X41656D02*
X42312Y34500D01*
X44280Y36468D02*
X42968D01*
Y35484D01*
X43624Y35812D01*
X43952D01*
X44280Y35484D01*
Y34828D01*
X43952Y34500D01*
X43296D01*
X42968Y34828D01*
X41500Y25000D02*
Y26968D01*
X42484D01*
X42812Y26640D01*
Y25984D01*
X42484Y25656D01*
X41500D01*
X42156D02*
X42812Y25000D01*
X44780Y26968D02*
X44124Y26640D01*
X43468Y25984D01*
Y25328D01*
X43796Y25000D01*
X44452D01*
X44780Y25328D01*
Y25656D01*
X44452Y25984D01*
X43468D01*
X151500Y64500D02*
Y66468D01*
X152484D01*
X152812Y66140D01*
Y65484D01*
X152484Y65156D01*
X151500D01*
X152156D02*
X152812Y64500D01*
X153468Y66140D02*
X153796Y66468D01*
X154452D01*
X154780Y66140D01*
Y65812D01*
X154452Y65484D01*
X154124D01*
X154452D01*
X154780Y65156D01*
Y64828D01*
X154452Y64500D01*
X153796D01*
X153468Y64828D01*
X151500Y54500D02*
Y56468D01*
X152484D01*
X152812Y56140D01*
Y55484D01*
X152484Y55156D01*
X151500D01*
X152156D02*
X152812Y54500D01*
X154780D02*
X153468D01*
X154780Y55812D01*
Y56140D01*
X154452Y56468D01*
X153796D01*
X153468Y56140D01*
X151500Y44500D02*
Y46468D01*
X152484D01*
X152812Y46140D01*
Y45484D01*
X152484Y45156D01*
X151500D01*
X152156D02*
X152812Y44500D01*
X153468D02*
X154124D01*
X153796D01*
Y46468D01*
X153468Y46140D01*
X151500Y164500D02*
Y166468D01*
X152484D01*
X152812Y166140D01*
Y165484D01*
X152484Y165156D01*
X151500D01*
X152156D02*
X152812Y164500D01*
X153468Y166468D02*
X154780D01*
Y166140D01*
X153468Y164828D01*
Y164500D01*
X151500Y154500D02*
Y156468D01*
X152484D01*
X152812Y156140D01*
Y155484D01*
X152484Y155156D01*
X151500D01*
X152156D02*
X152812Y154500D01*
X153468Y156140D02*
X153796Y156468D01*
X154452D01*
X154780Y156140D01*
Y155812D01*
X154452Y155484D01*
X154780Y155156D01*
Y154828D01*
X154452Y154500D01*
X153796D01*
X153468Y154828D01*
Y155156D01*
X153796Y155484D01*
X153468Y155812D01*
Y156140D01*
X153796Y155484D02*
X154452D01*
X151500Y144500D02*
Y146468D01*
X152484D01*
X152812Y146140D01*
Y145484D01*
X152484Y145156D01*
X151500D01*
X152156D02*
X152812Y144500D01*
X153468Y144828D02*
X153796Y144500D01*
X154452D01*
X154780Y144828D01*
Y146140D01*
X154452Y146468D01*
X153796D01*
X153468Y146140D01*
Y145812D01*
X153796Y145484D01*
X154780D01*
X151500Y134500D02*
Y136468D01*
X152484D01*
X152812Y136140D01*
Y135484D01*
X152484Y135156D01*
X151500D01*
X152156D02*
X152812Y134500D01*
X153468D02*
X154124D01*
X153796D01*
Y136468D01*
X153468Y136140D01*
X155108D02*
X155436Y136468D01*
X156092D01*
X156420Y136140D01*
Y134828D01*
X156092Y134500D01*
X155436D01*
X155108Y134828D01*
Y136140D01*
X151500Y124500D02*
Y126468D01*
X152484D01*
X152812Y126140D01*
Y125484D01*
X152484Y125156D01*
X151500D01*
X152156D02*
X152812Y124500D01*
X153468D02*
X154124D01*
X153796D01*
Y126468D01*
X153468Y126140D01*
X155108Y124500D02*
X155764D01*
X155436D01*
Y126468D01*
X155108Y126140D01*
X118161Y164890D02*
X117833Y165217D01*
X117178D01*
X116850Y164890D01*
Y163578D01*
X117178Y163250D01*
X117833D01*
X118161Y163578D01*
X119801Y163250D02*
Y165217D01*
X118817Y164234D01*
X120129D01*
X98462Y164890D02*
X98133Y165217D01*
X97478D01*
X97150Y164890D01*
Y163578D01*
X97478Y163250D01*
X98133D01*
X98462Y163578D01*
X99117Y163250D02*
X99773D01*
X99445D01*
Y165217D01*
X99117Y164890D01*
X109161D02*
X108834Y165217D01*
X108178D01*
X107850Y164890D01*
Y163578D01*
X108178Y163250D01*
X108834D01*
X109161Y163578D01*
X111129Y163250D02*
X109818D01*
X111129Y164561D01*
Y164890D01*
X110801Y165217D01*
X110145D01*
X109818Y164890D01*
X89362D02*
X89034Y165217D01*
X88378D01*
X88050Y164890D01*
Y163578D01*
X88378Y163250D01*
X89034D01*
X89362Y163578D01*
X90017Y164890D02*
X90346Y165217D01*
X91001D01*
X91329Y164890D01*
Y164561D01*
X91001Y164234D01*
X90673D01*
X91001D01*
X91329Y163906D01*
Y163578D01*
X91001Y163250D01*
X90346D01*
X90017Y163578D01*
D28*
X43100Y61600D02*
Y62100D01*
X43200Y61500D02*
Y62200D01*
X43300Y61400D02*
Y62200D01*
X43400Y61300D02*
Y62300D01*
X43500Y61200D02*
Y61700D01*
Y61900D02*
Y62300D01*
X43600Y61200D02*
Y61600D01*
Y61900D02*
Y62300D01*
X43700Y61100D02*
Y61600D01*
Y61900D02*
Y62400D01*
X43800Y61100D02*
Y61500D01*
Y61900D02*
Y62400D01*
X43900Y61000D02*
Y61500D01*
Y62000D02*
Y62400D01*
X44000Y61000D02*
Y61400D01*
Y62000D02*
Y62400D01*
X44100Y60900D02*
Y61400D01*
Y62000D02*
Y62400D01*
X44200Y60900D02*
Y61300D01*
Y62000D02*
Y62400D01*
X64600Y128800D02*
Y129300D01*
X64500Y127900D02*
Y129900D01*
X64400Y127300D02*
Y130200D01*
X64300Y126400D02*
Y130400D01*
X64200Y125700D02*
Y130600D01*
X64100Y129700D02*
Y130800D01*
Y128500D02*
Y129500D01*
Y125000D02*
Y128100D01*
X64000Y130000D02*
Y130900D01*
Y127700D02*
Y129700D01*
Y124200D02*
Y127300D01*
X63900Y130300D02*
Y131100D01*
Y127100D02*
Y129800D01*
Y123600D02*
Y126600D01*
X63800Y130500D02*
Y131200D01*
Y126400D02*
Y129900D01*
Y122700D02*
Y125900D01*
X63700Y130600D02*
Y131300D01*
Y129400D02*
Y130000D01*
Y125800D02*
Y128400D01*
Y122100D02*
Y125100D01*
X63600Y130800D02*
Y131400D01*
Y129500D02*
Y130100D01*
Y125100D02*
Y127900D01*
Y121200D02*
Y124500D01*
X63500Y130900D02*
Y131500D01*
Y129600D02*
Y130200D01*
Y124500D02*
Y127100D01*
Y120500D02*
Y123600D01*
X63400Y131000D02*
Y131600D01*
Y129700D02*
Y130300D01*
Y123800D02*
Y126600D01*
Y119700D02*
Y123000D01*
X63300Y131100D02*
Y131600D01*
Y129800D02*
Y130400D01*
Y123200D02*
Y126000D01*
Y119000D02*
Y122300D01*
X63200Y131200D02*
Y131700D01*
Y129900D02*
Y130500D01*
Y122600D02*
Y125300D01*
Y118400D02*
Y121400D01*
X63100Y131300D02*
Y131800D01*
Y130000D02*
Y130600D01*
Y121900D02*
Y124700D01*
Y117500D02*
Y120800D01*
X63000Y131300D02*
Y131900D01*
Y130100D02*
Y130700D01*
Y121300D02*
Y124000D01*
Y116900D02*
Y119900D01*
X62900Y131400D02*
Y131900D01*
Y130200D02*
Y130700D01*
Y120600D02*
Y123400D01*
Y116000D02*
Y119300D01*
X62800Y131500D02*
Y132000D01*
Y130300D02*
Y130800D01*
Y120000D02*
Y122700D01*
Y115300D02*
Y118400D01*
X62700Y131500D02*
Y132000D01*
Y130300D02*
Y130900D01*
Y119300D02*
Y122100D01*
Y114500D02*
Y117800D01*
X62600Y131600D02*
Y132100D01*
Y130400D02*
Y131000D01*
Y118700D02*
Y121400D01*
Y113800D02*
Y116900D01*
Y85300D02*
Y88700D01*
X62500Y131600D02*
Y132100D01*
Y130500D02*
Y131000D01*
Y118000D02*
Y120800D01*
Y113000D02*
Y116200D01*
Y84500D02*
Y89600D01*
X62400Y131700D02*
Y132200D01*
Y130600D02*
Y131100D01*
Y117400D02*
Y120200D01*
Y112300D02*
Y115600D01*
Y83900D02*
Y90300D01*
X62300Y131800D02*
Y132200D01*
Y130700D02*
Y131200D01*
Y116900D02*
Y119500D01*
Y111700D02*
Y114700D01*
Y83600D02*
Y90800D01*
X62200Y131800D02*
Y132300D01*
Y130800D02*
Y131300D01*
Y116100D02*
Y118900D01*
Y110800D02*
Y114100D01*
Y88100D02*
Y91500D01*
Y83100D02*
Y85800D01*
X62100Y131800D02*
Y132300D01*
Y130800D02*
Y131400D01*
Y115500D02*
Y118200D01*
Y110200D02*
Y113200D01*
Y89500D02*
Y92000D01*
Y82900D02*
Y84600D01*
X62000Y131900D02*
Y132300D01*
Y130900D02*
Y131500D01*
Y114800D02*
Y117600D01*
Y109300D02*
Y112600D01*
Y90000D02*
Y92700D01*
Y82600D02*
Y84100D01*
X61900Y131900D02*
Y132300D01*
Y131000D02*
Y131600D01*
Y114200D02*
Y116900D01*
Y108700D02*
Y111700D01*
Y90800D02*
Y93200D01*
Y82400D02*
Y83600D01*
X61800Y131900D02*
Y132400D01*
Y131100D02*
Y131600D01*
Y113500D02*
Y116300D01*
Y107800D02*
Y111000D01*
Y91300D02*
Y93900D01*
Y82200D02*
Y83300D01*
X61700Y131900D02*
Y132400D01*
Y131200D02*
Y131700D01*
Y112900D02*
Y115700D01*
Y107100D02*
Y110300D01*
Y91900D02*
Y94400D01*
Y82100D02*
Y83000D01*
X61600Y131900D02*
Y132300D01*
Y131300D02*
Y131800D01*
Y112300D02*
Y115000D01*
Y106400D02*
Y109500D01*
Y92500D02*
Y94900D01*
Y82000D02*
Y82800D01*
X61500Y131400D02*
Y132300D01*
Y111600D02*
Y114500D01*
Y105600D02*
Y108900D01*
Y93000D02*
Y95600D01*
Y81900D02*
Y82600D01*
X61400Y131400D02*
Y132300D01*
Y111100D02*
Y113700D01*
Y105000D02*
Y108000D01*
Y93700D02*
Y96000D01*
Y81800D02*
Y82400D01*
X61300Y131600D02*
Y132200D01*
Y110300D02*
Y113200D01*
Y104100D02*
Y107400D01*
Y94200D02*
Y96900D01*
Y81700D02*
Y82300D01*
X61200Y131700D02*
Y132100D01*
Y109800D02*
Y112400D01*
Y103500D02*
Y106500D01*
Y94900D02*
Y97400D01*
Y81700D02*
Y82200D01*
X61100Y109000D02*
Y111900D01*
Y102600D02*
Y105900D01*
Y95300D02*
Y98200D01*
Y81600D02*
Y82100D01*
X61000Y108400D02*
Y111100D01*
Y102000D02*
Y105000D01*
Y96000D02*
Y98800D01*
Y81600D02*
Y82100D01*
X60900Y107700D02*
Y110500D01*
Y101200D02*
Y104400D01*
Y96600D02*
Y99900D01*
Y81600D02*
Y82100D01*
X60800Y107100D02*
Y109900D01*
Y97200D02*
Y103700D01*
Y81600D02*
Y82100D01*
X60700Y106600D02*
Y109200D01*
Y98000D02*
Y102900D01*
Y81700D02*
Y82100D01*
X60600Y105800D02*
Y108700D01*
Y98700D02*
Y102300D01*
Y85500D02*
Y86500D01*
Y81700D02*
Y82200D01*
X60500Y105300D02*
Y107900D01*
Y98400D02*
Y101400D01*
Y85500D02*
Y87100D01*
Y81800D02*
Y82300D01*
X60400Y104500D02*
Y107300D01*
Y97500D02*
Y100800D01*
Y85400D02*
Y88000D01*
Y81800D02*
Y82400D01*
X60300Y104000D02*
Y107700D01*
Y96900D02*
Y99900D01*
Y85300D02*
Y88600D01*
Y81900D02*
Y82500D01*
X60200Y103200D02*
Y109700D01*
Y96000D02*
Y99300D01*
Y86200D02*
Y89400D01*
Y85300D02*
Y85800D01*
Y82000D02*
Y82600D01*
X60100Y102600D02*
Y111200D01*
Y95300D02*
Y98400D01*
Y87000D02*
Y90100D01*
Y85200D02*
Y85700D01*
Y82100D02*
Y82700D01*
X60000Y105700D02*
Y112900D01*
Y102000D02*
Y104700D01*
Y94600D02*
Y97800D01*
Y87700D02*
Y90800D01*
Y85100D02*
Y85600D01*
Y82200D02*
Y82900D01*
X59900Y107100D02*
Y114600D01*
Y101300D02*
Y104200D01*
Y93800D02*
Y97100D01*
Y88300D02*
Y91500D01*
Y85100D02*
Y85600D01*
Y82300D02*
Y83000D01*
X59800Y109100D02*
Y115100D01*
Y100800D02*
Y103400D01*
Y93200D02*
Y96200D01*
Y89200D02*
Y92000D01*
Y85000D02*
Y85500D01*
Y82400D02*
Y83200D01*
X59700Y110500D02*
Y115900D01*
Y100000D02*
Y102900D01*
Y89800D02*
Y95600D01*
Y84900D02*
Y85400D01*
Y82600D02*
Y83300D01*
X59600Y112600D02*
Y116400D01*
Y99500D02*
Y102100D01*
Y90700D02*
Y94700D01*
Y84800D02*
Y85400D01*
Y82700D02*
Y83500D01*
X59500Y114200D02*
Y116500D01*
Y98700D02*
Y101600D01*
Y91200D02*
Y94100D01*
Y84800D02*
Y85300D01*
Y82900D02*
Y83700D01*
X59400Y115100D02*
Y116500D01*
Y113700D02*
Y114700D01*
Y98200D02*
Y100800D01*
Y92000D02*
Y93500D01*
Y84600D02*
Y85200D01*
Y83000D02*
Y83800D01*
X59300Y115700D02*
Y116500D01*
Y111800D02*
Y114800D01*
Y97300D02*
Y100300D01*
Y92600D02*
Y94200D01*
Y84600D02*
Y85100D01*
Y83200D02*
Y84000D01*
X59200Y116100D02*
Y116600D01*
Y110600D02*
Y114800D01*
Y96600D02*
Y99600D01*
Y92600D02*
Y95100D01*
Y84400D02*
Y85000D01*
Y83400D02*
Y84200D01*
X59100Y116100D02*
Y116600D01*
Y109200D02*
Y114800D01*
Y93100D02*
Y98900D01*
Y92600D02*
Y93000D01*
Y83500D02*
Y85000D01*
X59000Y116100D02*
Y116600D01*
Y107100D02*
Y114800D01*
Y93300D02*
Y98400D01*
Y92600D02*
Y93100D01*
Y83700D02*
Y84800D01*
X58900Y116100D02*
Y116600D01*
Y114400D02*
Y114800D01*
Y105900D02*
Y112500D01*
Y94000D02*
Y97600D01*
Y92700D02*
Y93100D01*
Y83900D02*
Y84800D01*
X58800Y116200D02*
Y116600D01*
Y114400D02*
Y114800D01*
Y104200D02*
Y111400D01*
Y94700D02*
Y96900D01*
Y92700D02*
Y93100D01*
Y84100D02*
Y85100D01*
X58700Y116200D02*
Y116600D01*
Y114400D02*
Y114900D01*
Y110900D02*
Y111500D01*
Y103000D02*
Y109200D01*
Y92700D02*
Y93200D01*
Y84300D02*
Y85300D01*
X58600Y116200D02*
Y116600D01*
Y114400D02*
Y114900D01*
Y111000D02*
Y111500D01*
Y101700D02*
Y107800D01*
Y92700D02*
Y93200D01*
Y84500D02*
Y85600D01*
X58500Y116200D02*
Y116600D01*
Y114400D02*
Y114900D01*
Y111100D02*
Y111500D01*
Y100900D02*
Y105900D01*
Y92700D02*
Y93200D01*
Y84700D02*
Y85800D01*
X58400Y116200D02*
Y116700D01*
Y114500D02*
Y114900D01*
Y111100D02*
Y111600D01*
Y99900D02*
Y104700D01*
Y92800D02*
Y93200D01*
Y84900D02*
Y86000D01*
X58300Y116200D02*
Y116700D01*
Y114500D02*
Y114900D01*
Y111200D02*
Y111600D01*
Y99100D02*
Y103400D01*
Y92800D02*
Y93200D01*
Y85200D02*
Y86300D01*
X58200Y116200D02*
Y116700D01*
Y114500D02*
Y114900D01*
Y111200D02*
Y111700D01*
Y98500D02*
Y102100D01*
Y92800D02*
Y93200D01*
Y85400D02*
Y86500D01*
X58100Y116200D02*
Y116700D01*
Y114500D02*
Y114900D01*
Y111200D02*
Y111700D01*
Y97600D02*
Y101200D01*
Y92800D02*
Y93200D01*
Y85600D02*
Y86800D01*
X58000Y116300D02*
Y116700D01*
Y114500D02*
Y115000D01*
Y111300D02*
Y111700D01*
Y97200D02*
Y100100D01*
Y92700D02*
Y93200D01*
Y85900D02*
Y87100D01*
X57900Y116300D02*
Y116700D01*
Y114500D02*
Y115000D01*
Y111300D02*
Y111800D01*
Y96500D02*
Y99400D01*
Y92700D02*
Y93200D01*
Y86100D02*
Y87400D01*
X57800Y116300D02*
Y116700D01*
Y114500D02*
Y115000D01*
Y111400D02*
Y111800D01*
Y96000D02*
Y98500D01*
Y92700D02*
Y93200D01*
Y86400D02*
Y87700D01*
X57700Y116300D02*
Y116700D01*
Y114600D02*
Y115000D01*
Y111400D02*
Y111900D01*
Y95400D02*
Y97900D01*
Y92700D02*
Y93200D01*
Y86700D02*
Y88100D01*
X57600Y116300D02*
Y116700D01*
Y114600D02*
Y115000D01*
Y111400D02*
Y111900D01*
Y94900D02*
Y97300D01*
Y92700D02*
Y93100D01*
Y87000D02*
Y88500D01*
X57500Y116300D02*
Y116700D01*
Y114600D02*
Y115100D01*
Y111500D02*
Y111900D01*
Y94200D02*
Y96700D01*
Y92700D02*
Y93100D01*
Y86800D02*
Y89000D01*
X57400Y116300D02*
Y116700D01*
Y114600D02*
Y115100D01*
Y111500D02*
Y112000D01*
Y93500D02*
Y96200D01*
Y92600D02*
Y93100D01*
Y86600D02*
Y89500D01*
X57300Y116300D02*
Y116700D01*
Y114600D02*
Y115100D01*
Y111600D02*
Y112000D01*
Y92600D02*
Y95600D01*
Y88000D02*
Y90000D01*
Y86400D02*
Y87400D01*
X57200Y116300D02*
Y116800D01*
Y114700D02*
Y115100D01*
Y111600D02*
Y112100D01*
Y88300D02*
Y95100D01*
Y86100D02*
Y87200D01*
X57100Y116400D02*
Y116800D01*
Y114700D02*
Y115100D01*
Y111600D02*
Y112100D01*
Y88900D02*
Y94400D01*
Y85900D02*
Y86900D01*
X57000Y116400D02*
Y116800D01*
Y114700D02*
Y115100D01*
Y111600D02*
Y112100D01*
Y89300D02*
Y93800D01*
Y85600D02*
Y86700D01*
X56900Y116400D02*
Y116800D01*
Y114700D02*
Y115100D01*
Y111700D02*
Y112100D01*
Y89900D02*
Y92900D01*
Y85400D02*
Y86500D01*
X56800Y116400D02*
Y116800D01*
Y114700D02*
Y115200D01*
Y111700D02*
Y112200D01*
Y89700D02*
Y92200D01*
Y85200D02*
Y86300D01*
X56700Y116400D02*
Y116800D01*
Y114800D02*
Y115200D01*
Y111800D02*
Y112200D01*
Y89400D02*
Y90600D01*
Y85000D02*
Y86000D01*
X56600Y116400D02*
Y116800D01*
Y114800D02*
Y115200D01*
Y111800D02*
Y112300D01*
Y89200D02*
Y90300D01*
Y84800D02*
Y85800D01*
X56500Y116400D02*
Y116800D01*
Y114800D02*
Y115200D01*
Y111800D02*
Y112300D01*
Y88900D02*
Y90100D01*
Y84500D02*
Y85600D01*
X56400Y116400D02*
Y116900D01*
Y114800D02*
Y115200D01*
Y111900D02*
Y112300D01*
Y88700D02*
Y89800D01*
Y84300D02*
Y85300D01*
X56300Y116400D02*
Y116900D01*
Y114800D02*
Y115300D01*
Y111900D02*
Y112400D01*
Y88400D02*
Y89600D01*
Y84000D02*
Y85100D01*
X56200Y116400D02*
Y116900D01*
Y114800D02*
Y115300D01*
Y111900D02*
Y112400D01*
Y88200D02*
Y89300D01*
Y83800D02*
Y84900D01*
X56100Y116400D02*
Y116900D01*
Y114800D02*
Y115300D01*
Y112000D02*
Y112400D01*
Y87900D02*
Y89100D01*
Y83600D02*
Y84700D01*
X56000Y116500D02*
Y116900D01*
Y114900D02*
Y115300D01*
Y112000D02*
Y112500D01*
Y87700D02*
Y88800D01*
Y83400D02*
Y84400D01*
X55900Y116500D02*
Y116900D01*
Y114900D02*
Y115300D01*
Y112100D02*
Y112500D01*
Y87400D02*
Y88600D01*
Y83100D02*
Y84200D01*
X55800Y116500D02*
Y116900D01*
Y114900D02*
Y115300D01*
Y112100D02*
Y112600D01*
Y87200D02*
Y88300D01*
Y82900D02*
Y84000D01*
X55700Y116500D02*
Y116900D01*
Y114900D02*
Y115300D01*
Y112100D02*
Y112600D01*
Y87000D02*
Y88100D01*
Y82700D02*
Y83700D01*
X55600Y116500D02*
Y116900D01*
Y114900D02*
Y115400D01*
Y112200D02*
Y112600D01*
Y86700D02*
Y87800D01*
Y82500D02*
Y83500D01*
X55500Y116500D02*
Y116900D01*
Y115000D02*
Y115400D01*
Y112200D02*
Y112600D01*
Y86500D02*
Y87500D01*
Y82300D02*
Y83300D01*
X55400Y116500D02*
Y116900D01*
Y115000D02*
Y115400D01*
Y112200D02*
Y112700D01*
Y86200D02*
Y87300D01*
Y82000D02*
Y83100D01*
X55300Y116500D02*
Y116900D01*
Y115000D02*
Y115400D01*
Y112300D02*
Y112700D01*
Y85900D02*
Y87000D01*
Y81800D02*
Y82800D01*
X55200Y116600D02*
Y117000D01*
Y115000D02*
Y115400D01*
Y112300D02*
Y112800D01*
Y85700D02*
Y86800D01*
Y81500D02*
Y82600D01*
X55100Y116600D02*
Y117000D01*
Y115000D02*
Y115500D01*
Y112300D02*
Y112800D01*
Y85400D02*
Y86600D01*
Y81300D02*
Y82400D01*
X55000Y116600D02*
Y117000D01*
Y115000D02*
Y115500D01*
Y112400D02*
Y112800D01*
Y85200D02*
Y86300D01*
Y81100D02*
Y82100D01*
X54900Y116600D02*
Y117000D01*
Y115000D02*
Y115500D01*
Y112400D02*
Y112900D01*
Y84900D02*
Y86100D01*
Y80900D02*
Y81900D01*
X54800Y116600D02*
Y117000D01*
Y115000D02*
Y115500D01*
Y112500D02*
Y112900D01*
Y84700D02*
Y85800D01*
Y80700D02*
Y81700D01*
X54700Y116600D02*
Y117000D01*
Y115100D02*
Y115500D01*
Y112500D02*
Y112900D01*
Y84400D02*
Y85600D01*
Y80400D02*
Y81500D01*
X54600Y116600D02*
Y117000D01*
Y115100D02*
Y115500D01*
Y112500D02*
Y113000D01*
Y84200D02*
Y85300D01*
Y80200D02*
Y81200D01*
X54500Y116600D02*
Y117000D01*
Y115100D02*
Y115600D01*
Y112500D02*
Y113000D01*
Y83900D02*
Y85100D01*
Y79900D02*
Y81000D01*
X54400Y116600D02*
Y117100D01*
Y115100D02*
Y115600D01*
Y112600D02*
Y113000D01*
Y83700D02*
Y84800D01*
Y79700D02*
Y80700D01*
X54300Y116600D02*
Y117100D01*
Y115100D02*
Y115600D01*
Y112600D02*
Y113100D01*
Y83400D02*
Y84600D01*
Y79500D02*
Y80500D01*
X54200Y116600D02*
Y117100D01*
Y115200D02*
Y115600D01*
Y112700D02*
Y113100D01*
Y83200D02*
Y84300D01*
Y79300D02*
Y80300D01*
X54100Y116600D02*
Y117100D01*
Y115200D02*
Y115600D01*
Y112700D02*
Y113100D01*
Y83000D02*
Y84100D01*
Y79100D02*
Y80100D01*
X54000Y116700D02*
Y117100D01*
Y115200D02*
Y115600D01*
Y112700D02*
Y113200D01*
Y82700D02*
Y83800D01*
Y78800D02*
Y79900D01*
X53900Y116700D02*
Y117100D01*
Y115200D02*
Y115600D01*
Y112800D02*
Y113200D01*
Y82500D02*
Y83600D01*
Y78600D02*
Y79600D01*
X53800Y116700D02*
Y117100D01*
Y115200D02*
Y115700D01*
Y112800D02*
Y113300D01*
Y82200D02*
Y83300D01*
Y78300D02*
Y79400D01*
X53700Y116700D02*
Y117100D01*
Y115200D02*
Y115700D01*
Y112800D02*
Y113300D01*
Y82000D02*
Y83000D01*
Y78100D02*
Y79200D01*
X53600Y116700D02*
Y117100D01*
Y115200D02*
Y115700D01*
Y112900D02*
Y113300D01*
Y81700D02*
Y82800D01*
Y77900D02*
Y79000D01*
X53500Y116700D02*
Y117100D01*
Y115300D02*
Y115700D01*
Y112900D02*
Y113400D01*
Y81400D02*
Y82600D01*
Y77700D02*
Y78700D01*
X53400Y116700D02*
Y117200D01*
Y115300D02*
Y115700D01*
Y112900D02*
Y113400D01*
Y81200D02*
Y82300D01*
Y77400D02*
Y78500D01*
X53300Y116700D02*
Y117200D01*
Y115300D02*
Y115800D01*
Y113000D02*
Y113400D01*
Y80900D02*
Y82100D01*
Y77200D02*
Y78300D01*
X53200Y116700D02*
Y117200D01*
Y115300D02*
Y115800D01*
Y113000D02*
Y113500D01*
Y80700D02*
Y81800D01*
Y77000D02*
Y78000D01*
X53100Y116800D02*
Y117200D01*
Y115300D02*
Y115800D01*
Y113000D02*
Y113500D01*
Y80400D02*
Y81600D01*
Y76700D02*
Y77800D01*
X53000Y119600D02*
Y120400D01*
Y116800D02*
Y117200D01*
Y115400D02*
Y115800D01*
Y113100D02*
Y113500D01*
Y80200D02*
Y81300D01*
Y76500D02*
Y77600D01*
X52900Y118800D02*
Y120900D01*
Y116800D02*
Y117200D01*
Y115400D02*
Y115800D01*
Y113100D02*
Y113600D01*
Y79900D02*
Y81100D01*
Y76300D02*
Y77400D01*
X52800Y118300D02*
Y121000D01*
Y116800D02*
Y117200D01*
Y115400D02*
Y115800D01*
Y113200D02*
Y113600D01*
Y79700D02*
Y80800D01*
Y76100D02*
Y77100D01*
X52700Y117500D02*
Y121000D01*
Y116800D02*
Y117200D01*
Y115400D02*
Y115800D01*
Y113200D02*
Y113600D01*
Y79400D02*
Y80600D01*
Y75800D02*
Y76900D01*
X52600Y119600D02*
Y121000D01*
Y116800D02*
Y119500D01*
Y115400D02*
Y115900D01*
Y113200D02*
Y113700D01*
Y79200D02*
Y80300D01*
Y75600D02*
Y76700D01*
X52500Y119300D02*
Y121000D01*
Y116200D02*
Y119000D01*
Y115400D02*
Y115900D01*
Y113200D02*
Y113700D01*
Y79000D02*
Y80100D01*
Y75400D02*
Y76400D01*
X52400Y118800D02*
Y120700D01*
Y115500D02*
Y118400D01*
Y113300D02*
Y113700D01*
Y78700D02*
Y79800D01*
Y75200D02*
Y76200D01*
X52300Y118400D02*
Y120200D01*
Y115200D02*
Y117700D01*
Y113300D02*
Y113800D01*
Y78500D02*
Y79600D01*
Y74900D02*
Y76000D01*
X52200Y117900D02*
Y119800D01*
Y114600D02*
Y117200D01*
Y113400D02*
Y113800D01*
Y78200D02*
Y79300D01*
Y74700D02*
Y75800D01*
X52100Y117500D02*
Y119300D01*
Y114200D02*
Y116400D01*
Y113400D02*
Y113800D01*
Y78000D02*
Y79100D01*
Y74500D02*
Y75500D01*
X52000Y117000D02*
Y118900D01*
Y113400D02*
Y115800D01*
Y77700D02*
Y78800D01*
Y74200D02*
Y75300D01*
X51900Y116600D02*
Y118400D01*
Y113400D02*
Y115200D01*
Y77500D02*
Y78500D01*
Y74000D02*
Y75000D01*
X51800Y116200D02*
Y118100D01*
Y113100D02*
Y114800D01*
Y77200D02*
Y78300D01*
Y73800D02*
Y74800D01*
X51700Y115800D02*
Y117700D01*
Y112800D02*
Y114400D01*
Y76900D02*
Y78100D01*
Y73600D02*
Y74600D01*
X51600Y115400D02*
Y117200D01*
Y112500D02*
Y113900D01*
Y76700D02*
Y77800D01*
Y73400D02*
Y74400D01*
X51500Y114900D02*
Y116800D01*
Y112100D02*
Y113600D01*
Y76400D02*
Y77600D01*
Y73100D02*
Y74200D01*
X51400Y114500D02*
Y116300D01*
Y111900D02*
Y113200D01*
Y76200D02*
Y77300D01*
Y72900D02*
Y73900D01*
X51300Y114000D02*
Y116000D01*
Y111500D02*
Y112900D01*
Y75900D02*
Y77100D01*
Y72600D02*
Y73700D01*
X51200Y113700D02*
Y115400D01*
Y111200D02*
Y112600D01*
Y75700D02*
Y76800D01*
Y72400D02*
Y73400D01*
X51100Y113200D02*
Y115100D01*
Y110900D02*
Y112300D01*
Y75400D02*
Y76600D01*
Y72200D02*
Y73200D01*
X51000Y112800D02*
Y114600D01*
Y110600D02*
Y111900D01*
Y75200D02*
Y76300D01*
Y72000D02*
Y73000D01*
X50900Y112300D02*
Y114200D01*
Y110200D02*
Y111600D01*
Y74900D02*
Y76100D01*
Y71700D02*
Y72800D01*
X50800Y111900D02*
Y113800D01*
Y109900D02*
Y111400D01*
Y74700D02*
Y75800D01*
Y71500D02*
Y72600D01*
X50700Y111500D02*
Y113300D01*
Y109700D02*
Y111000D01*
Y74500D02*
Y75600D01*
Y71300D02*
Y72300D01*
X50600Y111000D02*
Y113000D01*
Y109300D02*
Y110700D01*
Y74200D02*
Y75300D01*
Y71000D02*
Y72100D01*
X50500Y110700D02*
Y112400D01*
Y109000D02*
Y110300D01*
Y74000D02*
Y75100D01*
Y70800D02*
Y71900D01*
X50400Y110200D02*
Y112100D01*
Y108800D02*
Y110000D01*
Y73700D02*
Y74800D01*
Y70600D02*
Y71700D01*
X50300Y108800D02*
Y111600D01*
Y73500D02*
Y74600D01*
Y70400D02*
Y71400D01*
X50200Y108800D02*
Y111200D01*
Y73200D02*
Y74300D01*
Y70100D02*
Y71200D01*
X50100Y108900D02*
Y110800D01*
Y72900D02*
Y74100D01*
Y69900D02*
Y71000D01*
X50000Y109200D02*
Y110300D01*
Y72700D02*
Y73800D01*
Y69700D02*
Y70700D01*
X49900Y109700D02*
Y110000D01*
Y72400D02*
Y73600D01*
Y69400D02*
Y70500D01*
X49800Y72200D02*
Y73300D01*
Y69200D02*
Y70300D01*
X49700Y71900D02*
Y73100D01*
Y69000D02*
Y70100D01*
X49600Y71700D02*
Y72800D01*
Y68800D02*
Y69800D01*
X49500Y71400D02*
Y72600D01*
Y68500D02*
Y69600D01*
X49400Y71200D02*
Y72300D01*
Y68300D02*
Y69300D01*
X49300Y70900D02*
Y72100D01*
Y68100D02*
Y69100D01*
X49200Y70700D02*
Y71800D01*
Y67900D02*
Y68900D01*
X49100Y70500D02*
Y71600D01*
Y67600D02*
Y68700D01*
X49000Y70200D02*
Y71400D01*
Y67400D02*
Y68500D01*
X48900Y70000D02*
Y71100D01*
Y67200D02*
Y68200D01*
X48800Y69700D02*
Y70800D01*
Y66900D02*
Y68000D01*
X48700Y69500D02*
Y70600D01*
Y66700D02*
Y67700D01*
X48600Y69200D02*
Y70300D01*
Y66500D02*
Y67500D01*
X48500Y69000D02*
Y70100D01*
Y66300D02*
Y67300D01*
X48400Y68700D02*
Y69800D01*
Y66000D02*
Y67100D01*
X48300Y68400D02*
Y69600D01*
Y65800D02*
Y66900D01*
X48200Y68200D02*
Y69300D01*
Y65600D02*
Y66600D01*
X48100Y67900D02*
Y69100D01*
Y65300D02*
Y66400D01*
X48000Y67700D02*
Y68800D01*
Y65100D02*
Y66100D01*
X47900Y67400D02*
Y68600D01*
Y64900D02*
Y65900D01*
X47800Y67200D02*
Y68300D01*
Y64700D02*
Y65700D01*
X47700Y66900D02*
Y68100D01*
Y64400D02*
Y65500D01*
X47600Y66700D02*
Y67800D01*
Y64200D02*
Y65300D01*
X47500Y66500D02*
Y67600D01*
Y64000D02*
Y65000D01*
X47400Y66200D02*
Y67400D01*
Y63700D02*
Y64800D01*
X47300Y66000D02*
Y67100D01*
Y63500D02*
Y64600D01*
X47200Y65700D02*
Y66900D01*
Y63300D02*
Y64400D01*
X47100Y65500D02*
Y66600D01*
Y63100D02*
Y64100D01*
X47000Y65200D02*
Y66300D01*
Y62800D02*
Y63900D01*
X46900Y65000D02*
Y66100D01*
Y62600D02*
Y63600D01*
X46800Y64700D02*
Y65800D01*
Y62400D02*
Y63400D01*
X46700Y64400D02*
Y65600D01*
Y62100D02*
Y63200D01*
X46600Y64200D02*
Y65300D01*
Y61900D02*
Y63000D01*
X46500Y63900D02*
Y65100D01*
Y61700D02*
Y62800D01*
X46400Y63700D02*
Y64800D01*
Y61500D02*
Y62500D01*
X46300Y61300D02*
Y64600D01*
X46200Y61200D02*
Y64300D01*
X46100Y61100D02*
Y64100D01*
X46000Y61900D02*
Y63800D01*
Y61000D02*
Y61600D01*
X45900Y62800D02*
Y63600D01*
Y61000D02*
Y61500D01*
X45800Y62600D02*
Y63400D01*
Y60900D02*
Y61400D01*
X45700Y62600D02*
Y63100D01*
Y60900D02*
Y61300D01*
X45600Y62500D02*
Y63000D01*
Y60800D02*
Y61300D01*
X45500Y62500D02*
Y63000D01*
Y60800D02*
Y61200D01*
X45400Y62400D02*
Y62900D01*
Y60700D02*
Y61200D01*
X45300Y62300D02*
Y62800D01*
Y60700D02*
Y61200D01*
X45200Y62300D02*
Y62800D01*
Y60700D02*
Y61200D01*
X45100Y62300D02*
Y62700D01*
Y60700D02*
Y61100D01*
X45000Y62200D02*
Y62700D01*
Y60700D02*
Y61100D01*
X44900Y62200D02*
Y62600D01*
Y60700D02*
Y61100D01*
X44800Y62200D02*
Y62600D01*
Y60700D02*
Y61100D01*
X44700Y62100D02*
Y62600D01*
Y60700D02*
Y61200D01*
X44600Y62100D02*
Y62600D01*
Y60700D02*
Y61200D01*
X44500Y62100D02*
Y62500D01*
Y60700D02*
Y61200D01*
X44400Y62100D02*
Y62500D01*
Y60800D02*
Y61200D01*
X44300Y62000D02*
Y62500D01*
Y60800D02*
Y61200D01*
X44200Y62000D02*
Y62500D01*
Y60800D02*
Y61200D01*
X44100Y62000D02*
Y62400D01*
Y60800D02*
Y61300D01*
X44000Y62000D02*
Y62400D01*
Y60900D02*
Y61300D01*
D29*
X88000Y180999D02*
X91999D01*
X179500Y155500D02*
X173596D01*
Y158452D01*
X174580Y159436D01*
X176548D01*
X177532Y158452D01*
Y155500D01*
X174580Y161404D02*
X173596Y162388D01*
Y164355D01*
X174580Y165339D01*
X175564D01*
X176548Y164355D01*
Y163372D01*
Y164355D01*
X177532Y165339D01*
X178516D01*
X179500Y164355D01*
Y162388D01*
X178516Y161404D01*
X46000Y155500D02*
X40096D01*
Y158452D01*
X41080Y159436D01*
X43048D01*
X44032Y158452D01*
Y155500D01*
X46000Y165339D02*
Y161404D01*
X42064Y165339D01*
X41080D01*
X40096Y164355D01*
Y162388D01*
X41080Y161404D01*
M02*
